<?xml version="1.0" standalone="no"?> <!DOCTYPE svg PUBLIC "-//W3C//DTD SVG 1.0//EN" "http://www.w3.org/TR/2001/REC-SVG-20010904/DTD/svg10.dtd" > <svg xmlns="http://www.w3.org/2000/svg" width="100%" height="100%">
<defs >
<font horiz-adv-x="668" ><font-face
    font-family="Atlas Typewriter Web"
    units-per-em="1000"
    panose-1="2 0 0 0 0 0 0 0 0 0"
    ascent="812"
    descent="-188"
    alphabetic="0" />
<missing-glyph horiz-adv-x="500" />
<glyph unicode=" " glyph-name="space" horiz-adv-x="640" />
<glyph unicode="!" glyph-name="exclam" horiz-adv-x="640" d="M282 788H358L348 221H292L282 788ZM265 0V115H375V0H265Z" />
<glyph unicode="&quot;" glyph-name="quotedbl" horiz-adv-x="640" d="M352 765H461L438 504H376L352 765ZM426 765H535L512 504H450L426 765Z" />
<glyph unicode="#" glyph-name="numbersign" horiz-adv-x="640" d="M405 527H255L230 361H381L405 527ZM193 99H135L165 308H57V361H173L197 527H88V581H206L233 765H290L262 581H413L440 765H497L470 581H584V527H462L438 361H553V308H430L400 99H343L374 308H223L193
99Z" />
<glyph unicode="$" glyph-name="dollar" horiz-adv-x="640" d="M291 694Q221 686 188 648T154 553Q154 492 185 459T277 416L291 414V694ZM352 53Q392 57 420 70T465 104T491 150T499 205Q499 255 471 289T371 335L345 339V52L352 53ZM291 -116V-6Q236 -3 196
14T127 60T84 127T64 211H130Q134 182 144 155T173 107T221 71T291 52V348L268 352Q173 368 130 418T86 553Q86 593 100 627T141 687T206 729T291 749V839H345V749Q443 742 496 688T555 541H488Q485 569 477 595T452 642T409 676T345 694V405L385 398Q568 368 568
208Q568 120 513 61T345 -6V-116H291Z" />
<glyph unicode="%" glyph-name="percent" horiz-adv-x="640" d="M522 774H586L121 0H58L522 774ZM30 602Q30 643 41 674T73 727T120 760T177 771Q208 771 235 760T282 728T313 675T325 602Q325 561 314 530T282 477T235 444T177 432Q114 432 72 476T30 602ZM177
723Q140 723 115 694T90 602Q90 541 115 511T177 481Q214 481 239 511T265 602Q265 662 240 692T177 723ZM464 -6Q401 -6 359 38T317 164Q317 205 328 236T360 289T407 322T464 333Q495 333 522 322T568 290T599 237T611 164Q611 123 600 92T569 39T522 6T464 -6ZM464
43Q501 43 526 73T552 163Q552 224 527 254T464 285Q426 285 402 256T377 163Q377 103 401 73T464 43Z" />
<glyph unicode="&amp;" glyph-name="ampersand" horiz-adv-x="640" d="M181 621Q181 596 185 577T200 538T225 497T260 449Q296 475 320 496T361 537T384 579T391 628Q391 672 366 702T289 732Q238 732 210 700T181 621ZM232 367Q200 343 178 324T141 284T121
242T115 193Q115 152 129 123T166 75T217 48T273 39Q329 39 367 57T431 107L238 371L232 367ZM580 0Q562 0 548 3T520 13T493 32T465 63Q432 27 385 6T272 -16Q218 -16 176 -1T105 42T61 105T45 185Q45 221 53 249T81 304T130 357T205 415Q185 442 169 465T140
512T121 561T114 616Q114 654 126 685T162 739T218 774T290 787Q331 787 362 775T414 741T445 692T456 632Q456 597 446 569T416 514T365 461T292 404L465 167Q485 214 493 269T508 382H567Q562 314 549 244T503 116Q519 95 530 84T552 67T578 60T613 59V0H580Z"
/>
<glyph unicode="&apos;" glyph-name="quotesingle" horiz-adv-x="640" d="M271 765H380L357 504H295L271 765Z" />
<glyph unicode="(" glyph-name="parenleft" horiz-adv-x="640" d="M418 -130Q372 -93 334 -45T267 61T222 186T206 329Q206 405 222 472T266 596T333 702T418 788H495Q448 747 408 700T339 596T293 473T276 329Q276 251 293 185T339 61T409 -43T495 -130H418Z" />
<glyph unicode=")" glyph-name="parenright" horiz-adv-x="640" d="M222 788Q268 750 306 702T373 597T418 472T434 329Q434 253 418 186T374 62T307 -44T222 -130H145Q191 -90 231 -42T301 62T347 185T364 329Q364 407 347 473T301 597T231 701T145 788H222Z" />
<glyph unicode="*" glyph-name="asterisk" horiz-adv-x="640" d="M320 470L196 282L135 326L278 498V500L74 562L100 636L294 545L297 546L282 765H359L343 547L345 546L539 635L564 564L361 501V498L505 325L443 281L322 470H320Z" />
<glyph unicode="+" glyph-name="plus" horiz-adv-x="640" d="M350 131H289V328H92V387H289V583H350V387H548V328H350V131Z" />
<glyph unicode="," glyph-name="comma" horiz-adv-x="640" d="M233 -129L285 117H397L297 -129H233Z" />
<glyph unicode="-" glyph-name="hyphen" horiz-adv-x="640" d="M171 366H469V299H171V366Z" />
<glyph unicode="." glyph-name="period" horiz-adv-x="640" d="M265 115H375V0H265V115Z" />
<glyph unicode="/" glyph-name="slash" horiz-adv-x="640" d="M510 788H576L105 -130H40L510 788Z" />
<glyph unicode="0" glyph-name="zero" horiz-adv-x="640" d="M66 368Q66 565 133 658T320 752Q438 752 506 659T574 368Q574 171 507 78T320 -16Q200 -16 133 77T66 368ZM320 42Q407 42 454 120T501 367Q501 536 454 614T320 693Q233 693 186 616T139 367Q139
198 185 120T320 42Z" />
<glyph unicode="1" glyph-name="one" horiz-adv-x="640" d="M113 0V57H299V560H124V616H187Q221 616 244 621T281 641Q297 657 302 680T309 744H367V57H551V0H113Z" />
<glyph unicode="2" glyph-name="two" horiz-adv-x="640" d="M101 502Q99 562 117 608T166 687T241 735T334 752Q392 752 434 735T504 690T545 626T559 551Q559 514 551 483T525 421T479 358T410 286L274 156Q248 131 230 114T199 85Q185 72 175 63V60H573V0H86V58L349
314Q384 348 410 376T454 430T480 485T489 548Q489 614 448 654T336 694Q299 694 268 683T215 647T180 587T168 502H101Z" />
<glyph unicode="3" glyph-name="three" horiz-adv-x="640" d="M262 347V407H327Q365 407 393 419T439 451T467 498T476 554Q476 618 435 655T324 693Q252 693 210 656T164 532H97Q97 577 111 617T153 687T225 734T326 752Q375 752 415 739T484 700T529 640T545
562Q545 493 510 448T415 383V381Q447 374 474 360T522 323T553 269T565 198Q565 154 548 115T499 47T422 2T321 -15Q257 -15 212 3T138 51T95 122T79 205H146Q161 43 326 43Q362 43 393 53T446 84T482 134T495 199Q495 275 449 311T330 347H262Z" />
<glyph unicode="4" glyph-name="four" horiz-adv-x="640" d="M406 246V670H402Q396 658 389 643Q382 630 373 614T352 580L129 246H406ZM473 188V0H406V188H59V243L390 741H473V247H576V188H473Z" />
<glyph unicode="5" glyph-name="five" horiz-adv-x="640" d="M137 200Q146 122 191 83T312 43Q343 43 375 52T434 84T477 144T494 235Q494 283 480 319T443 378T388 412T321 424Q211 424 166 351H100L124 741H524V679H183L167 416H169Q191 445 232 463T331 482Q376
482 418 468T493 424T544 348T564 239Q564 178 546 131T494 52T414 2T312 -15Q250 -15 206 3T132 52T88 120T70 200H137Z" />
<glyph unicode="6" glyph-name="six" horiz-adv-x="640" d="M486 587Q481 608 471 627T443 662T400 686T340 696Q285 696 248 671T188 601T154 493T143 354H146Q171 405 220 439T343 473Q387 473 428 460T502 417T553 343T573 233Q573 180 557 135T509 57T432
4T329 -15Q276 -15 230 1T149 58T94 164T74 331Q74 547 144 649T342 752Q392 752 429 739T492 702T533 649T553 587H486ZM330 42Q365 42 396 54T451 89T489 148T503 228Q503 275 490 310T454 368T398 402T329 414Q251 414 204 368T156 234Q156 190 169 155T205
94T260 56T330 42Z" />
<glyph unicode="7" glyph-name="seven" horiz-adv-x="640" d="M487 680H75V741H564V694L235 0H163L487 680Z" />
<glyph unicode="8" glyph-name="eight" horiz-adv-x="640" d="M94 557Q94 597 109 632T153 694T224 736T319 752Q373 752 414 737T485 695T529 633T544 557Q544 521 534 492T506 441T465 405T418 383V379Q441 374 467 362T516 326T552 270T567 191Q567 145 551
107T502 42T424 0T319 -16Q260 -16 215 -1T138 41T90 106T73 191Q73 237 88 270T125 326T174 361T222 379V383Q198 390 175 404T134 440T105 491T94 557ZM319 697Q289 697 261 689T212 663T177 618T164 552Q164 514 177 487T212 443T261 417T319 408Q348 408 376
416T425 442T460 487T474 552Q474 590 461 617T426 662T377 688T319 697ZM319 39Q356 39 388 47T444 75T482 123T496 194Q496 235 482 265T443 314T387 342T319 351Q284 351 253 342T197 314T159 265T144 194Q144 153 158 124T195 75T251 48T319 39Z" />
<glyph unicode="9" glyph-name="nine" horiz-adv-x="640" d="M312 693Q281 693 251 683T198 651T160 595T145 513Q145 470 158 437T194 382T247 348T313 336Q349 336 380 348T434 383T470 438T483 513Q483 556 470 590T433 646T378 681T312 693ZM152 160Q166 100
206 70T306 40Q357 40 392 60T450 122T482 230T495 390H491Q468 337 419 308T304 278Q260 278 219 292T146 334T95 407T76 513Q76 565 93 608T142 683T216 733T313 751Q368 751 414 732T492 673T543 570T561 420Q561 299 545 216T495 82T414 7T301 -16Q261 -16
225 -5T161 27T113 82T86 160H152Z" />
<glyph unicode=":" glyph-name="colon" horiz-adv-x="640" d="M265 392V507H375V392H265ZM265 0V115H375V0H265Z" />
<glyph unicode=";" glyph-name="semicolon" horiz-adv-x="640" d="M272 392V507H382V392H272ZM213 -129L265 117H378L278 -129H213Z" />
<glyph unicode="&lt;" glyph-name="less" horiz-adv-x="640" d="M86 295V348L545 571V503L166 322L545 141V73L86 295Z" />
<glyph unicode="=" glyph-name="equal" horiz-adv-x="640" d="M92 478H548V418H92V478ZM92 237V297H548V237H92Z" />
<glyph unicode="&gt;" glyph-name="greater" horiz-adv-x="640" d="M554 347V296L95 73V140L474 321L95 502V570L554 347Z" />
<glyph unicode="?" glyph-name="question" horiz-adv-x="640" d="M473 599Q473 663 432 700T319 738Q241 738 195 688T151 547H86Q84 605 101 651T149 730T224 780T320 797Q378 797 420 781T489 738T529 677T542 606Q542 568 534 539T510 487T476 443T434 403L400
372Q382 355 371 344T355 321T348 294T346 253V216H283V259Q283 292 285 312T296 349T320 381T360 418L402 455Q438 485 455 519T473 599ZM260 0V115H370V0H260Z" />
<glyph unicode="@" glyph-name="at" horiz-adv-x="640" d="M349 -124Q272 -124 218 -101T129 -32T78 83T62 246V312Q62 373 68 427T93 529Q106 563 126 591T175 639T243 670T332 682Q398 682 444 661T521 601T564 510T578 398V85H521V154H516Q478 74 383 74Q352
74 324 85T275 120T240 182T227 274Q227 374 271 425T391 476Q433 476 464 458T514 408H520Q518 452 509 492T479 563T422 612T331 630Q292 630 262 621T210 596T173 558T149 510Q133 467 127 416T121 308V268Q121 193 130 131T164 24T235 -46T354 -71Q391 -71
416 -66T470 -53L469 -104Q440 -115 409 -119T349 -124ZM396 128Q421 128 443 137T480 163T505 202T514 251V291Q514 322 505 346T481 388T446 414T404 423Q347 423 322 384T296 277Q296 245 301 218T317 171T348 140T396 128Z" />
<glyph unicode="A" glyph-name="A" horiz-adv-x="640" d="M312 695Q312 693 310 683T304 658T297 626T287 591L204 308H429L346 592Q341 609 336 627T328 661Q324 679 321 695H312ZM446 250H187L114 0H43L272 765H365L594 0H518L446 250Z" />
<glyph unicode="B" glyph-name="B" horiz-adv-x="640" d="M93 0V765H341Q389 765 429 754T499 720T545 663T562 582Q562 511 527 467T422 409V407Q461 401 491 385T542 343T574 287T585 221Q585 159 564 117T507 49T421 12T314 0H93ZM330 435Q362 435 391 441T441
463T476 505T489 572Q489 641 448 673T339 706H164V435H330ZM311 59Q411 59 461 97T511 221Q511 302 460 339T324 377H164V59H311Z" />
<glyph unicode="C" glyph-name="C" horiz-adv-x="640" d="M508 545Q505 576 494 607T463 663T412 703T337 719Q279 719 241 696T179 630T147 523T137 379Q137 212 184 127T339 42Q382 42 412 57T463 98T494 156T508 222H578Q573 169 555 125T505 50T430 1T335
-16Q271 -16 221 6T135 75T81 197T62 379Q62 580 131 678T338 777Q386 777 428 762T502 718T554 646T580 545H508Z" />
<glyph unicode="D" glyph-name="D" horiz-adv-x="640" d="M78 765H256Q325 765 386 745T493 679T565 562T592 388Q592 284 567 211T497 91T392 22T263 0H78V765ZM256 62Q311 62 358 78T441 131T497 231T517 385Q517 471 497 531T442 630T360 686T260 704H149V62H256Z" />
<glyph unicode="E" glyph-name="E" horiz-adv-x="640" d="M106 765H552V703H177V420H507V360H177V62H556V0H106V765Z" />
<glyph unicode="F" glyph-name="F" horiz-adv-x="640" d="M196 0H125V765H577V703H196V394H538V334H196V0Z" />
<glyph unicode="G" glyph-name="G" horiz-adv-x="640" d="M340 718Q285 718 247 696T184 630T148 523T137 377Q137 291 147 228T181 123T241 61T332 41Q378 41 412 59T468 108T502 177T513 256V317H326V378H580V0H517V113H513Q504 88 488 65T448 23T393 -5T323
-16Q262 -16 214 4T132 70T80 192T62 379Q62 482 81 556T137 680T224 752T340 776Q394 776 436 759T507 713T554 644T574 561H503Q500 593 489 621T458 671T408 705T340 718Z" />
<glyph unicode="H" glyph-name="H" horiz-adv-x="640" d="M152 0H81V765H152V420H488V765H559V0H488V359H152V0Z" />
<glyph unicode="I" glyph-name="I" horiz-adv-x="640" d="M355 58H534V0H106V58H285V707H106V765H534V707H355V58Z" />
<glyph unicode="J" glyph-name="J" horiz-adv-x="640" d="M263 -9Q208 -9 173 -3T112 10V75Q139 67 177 61T263 55Q344 55 385 95T426 224V704H157V765H497V216Q497 158 480 116T431 46T357 5T263 -9Z" />
<glyph unicode="K" glyph-name="K" horiz-adv-x="640" d="M173 0H102V765H173V361L500 765H583L318 441L611 0H525L269 386L173 268V0Z" />
<glyph unicode="L" glyph-name="L" horiz-adv-x="640" d="M129 765H201V62H590V0H129V765Z" />
<glyph unicode="M" glyph-name="M" horiz-adv-x="640" d="M81 765H182L296 366Q302 344 306 325T312 292Q315 275 317 261H325Q326 275 329 292Q331 306 335 325T345 365L458 765H559V0H491V675H482Q479 657 475 637Q471 620 467 598T455 551L351 185H286L182
550Q175 574 170 597T162 637Q158 657 155 675H147V0H81V765Z" />
<glyph unicode="N" glyph-name="N" horiz-adv-x="640" d="M80 765H177L453 175Q462 155 468 138T480 108Q485 93 489 81H495V765H560V0H463L192 578Q182 599 174 618T161 652Q155 669 150 684H145V0H80V765Z" />
<glyph unicode="O" glyph-name="O" horiz-adv-x="640" d="M55 380Q55 490 75 566T130 688T214 755T321 776Q383 776 432 756T515 689T567 566T585 380Q585 270 566 195T511 72T427 5T319 -16Q256 -16 207 4T124 72T73 194T55 380ZM320 41Q369 41 404 60T463 120T498
225T510 380Q510 473 499 538T465 643T405 701T320 719Q272 719 237 700T178 640T142 535T130 380Q130 291 141 227T175 121T234 61T320 41Z" />
<glyph unicode="P" glyph-name="P" horiz-adv-x="640" d="M170 304V0H99V765H325Q444 765 512 707T581 538Q581 427 513 366T321 304H170ZM323 362Q363 362 397 372T455 403T494 458T508 537Q508 622 460 664T325 707H170V362H323Z" />
<glyph unicode="Q" glyph-name="Q" horiz-adv-x="640" d="M474 34Q524 21 556 -9T611 -89L546 -121Q522 -62 488 -35T417 -8Q398 -8 374 -11T320 -15Q257 -15 208 5T125 72T73 194T55 380Q55 490 75 566T130 688T214 755T321 776Q383 776 432 756T515 689T567
566T585 380Q585 243 556 160T474 39V34ZM320 719Q272 719 237 700T177 640T142 535T130 380Q130 291 141 227T175 121T234 61T320 41Q364 41 399 57T459 111T497 215T510 380Q510 473 499 537T465 642T406 701T320 719Z" />
<glyph unicode="R" glyph-name="R" horiz-adv-x="640" d="M335 385Q371 385 402 394T456 424T493 475T507 552Q507 627 462 666T334 705H162V385H335ZM341 326H162V0H90V765H333Q375 765 413 757T484 732Q529 707 555 663T581 553Q581 505 567 469T530 406T477
363T413 338V336L589 0H509L341 326Z" />
<glyph unicode="S" glyph-name="S" horiz-adv-x="640" d="M499 561Q496 593 486 621T455 671T404 704T329 717Q251 717 206 680T160 574Q160 542 168 519T192 480T232 453T291 434L399 409Q497 386 539 337T581 205Q581 156 564 116T514 46T433 1T320 -15Q258
-15 212 2T134 49T84 121T62 212H131Q135 178 147 148T182 94T240 58T324 44Q375 44 410 56T466 90T498 140T508 199Q508 259 480 292T380 343L281 366Q228 378 192 396T133 438T100 496T90 572Q90 619 108 656T157 720T233 761T330 776Q388 776 431 761T504 717T550
649T570 561H499Z" />
<glyph unicode="T" glyph-name="T" horiz-adv-x="640" d="M604 704H355V0H284V704H35V765H604V704Z" />
<glyph unicode="U" glyph-name="U" horiz-adv-x="640" d="M75 765H146V250Q146 202 155 165T185 101T239 61T322 47Q371 47 404 61T457 101T486 164T495 250V765H565V246Q565 175 548 126T498 45T421 -1T320 -15Q264 -15 219 -1T141 44T92 126T75 247V765Z" />
<glyph unicode="V" glyph-name="V" horiz-adv-x="640" d="M368 0H272L46 765H120L292 171Q297 153 301 135T310 103Q314 86 317 70H326Q330 85 334 103Q338 118 342 136T352 172L524 765H594L368 0Z" />
<glyph unicode="W" glyph-name="W" horiz-adv-x="640" d="M117 0L41 765H107L173 79H179Q180 93 183 109Q185 123 188 139T195 175L286 605H357L448 174Q452 156 454 140T459 109Q461 93 463 79H470L535 765H598L523 0H425L339 414Q334 434 331 453T326 487Q323
505 322 521H316Q315 505 312 487Q310 472 307 453T299 414L213 0H117Z" />
<glyph unicode="X" glyph-name="X" horiz-adv-x="640" d="M277 390L57 765H138L316 449H320L501 765H575L356 395L598 0H517L317 337H315L115 0H42L277 390Z" />
<glyph unicode="Y" glyph-name="Y" horiz-adv-x="640" d="M285 337L42 765H122L322 400H323L525 765H599L356 338V0H285V337Z" />
<glyph unicode="Z" glyph-name="Z" horiz-adv-x="640" d="M77 765H580V710L146 61H586V0H62V55L496 704H77V765Z" />
<glyph unicode="[" glyph-name="bracketleft" horiz-adv-x="640" d="M215 788H471V734H281V-76H471V-130H215V788Z" />
<glyph unicode="\" glyph-name="backslash" horiz-adv-x="640" d="M64 788H131L600 -130H534L64 788Z" />
<glyph unicode="]" glyph-name="bracketright" horiz-adv-x="640" d="M425 -130H169V-76H359V734H169V788H425V-130Z" />
<glyph unicode="^" glyph-name="asciicircum" horiz-adv-x="640" d="M536 427H462L322 695H318L172 426H104L291 765H352L536 427Z" />
<glyph unicode="_" glyph-name="underscore" horiz-adv-x="640" d="M100 -130H540V-188H100V-130Z" />
<glyph unicode="`" glyph-name="grave" horiz-adv-x="640" d="M334 609L223 788H327L392 609H334Z" />
<glyph unicode="a" glyph-name="a" horiz-adv-x="640" d="M163 143Q163 95 193 72T273 48Q303 48 332 59T385 93T423 152T438 236V258Q337 252 282 244T201 218Q163 191 163 143ZM439 101Q416 49 370 21T261 -8Q184 -8 139 31T93 140Q93 185 112 216T167 266Q207
288 273 297T439 312V334Q439 369 434 396T414 442T374 471T310 481Q277 481 254 473T215 451T191 420T181 383H114Q117 414 130 441T168 490T228 524T309 537Q365 537 402 522T463 481T495 418T505 338V104Q505 77 514 67T549 56H568V0H544Q486 0 465 24T442 101H439Z"
/>
<glyph unicode="b" glyph-name="b" horiz-adv-x="640" d="M97 788H167V434H168Q193 482 240 509T350 537Q393 537 432 523T503 477T552 393T571 265Q571 194 553 142T503 55T429 4T339 -13Q305 -13 278 -5T228 18T190 51T164 90H162V0H97V788ZM334 43Q418 43 459
102T500 265Q500 310 492 349T464 417T414 464T336 481Q294 481 262 467T209 428T176 372T165 308V226Q165 191 175 159T206 100T259 59T334 43Z" />
<glyph unicode="c" glyph-name="c" horiz-adv-x="640" d="M480 378Q477 397 467 415T440 448T397 472T339 481Q258 481 214 424T170 264Q170 212 179 171T209 102T260 58T336 43Q372 43 398 53T441 80T468 118T482 161H552Q538 76 479 32T335 -13Q216 -13 157
60T97 259Q97 320 113 371T160 460T236 517T340 538Q376 538 411 530T475 502T524 452T550 378H480Z" />
<glyph unicode="d" glyph-name="d" horiz-adv-x="640" d="M476 301Q476 338 465 370T433 427T382 466T313 481Q269 481 237 465T183 420T152 351T141 263Q141 214 150 174T180 104T231 59T306 43Q349 43 381 58T434 97T465 154T476 219V301ZM544 0H478V90H475Q465
69 449 51T411 18T361 -4T300 -13Q259 -13 218 0T144 44T91 128T70 259Q70 326 87 378T135 465T209 518T305 537Q365 537 408 511T472 442H474V788H544V0Z" />
<glyph unicode="e" glyph-name="e" horiz-adv-x="640" d="M480 305Q480 336 474 367T450 424T404 466T330 482Q252 482 211 432T162 300H480V305ZM541 131Q526 68 472 28T333 -13Q271 -13 226 6T150 61T106 146T91 258Q91 318 106 369T152 457T227 516T331 537Q392
537 433 516T501 460T538 380T550 289V246H160Q164 150 205 97T335 43Q372 43 397 52T438 76T462 105T475 131H541Z" />
<glyph unicode="f" glyph-name="f" horiz-adv-x="640" d="M343 0H274V467H79V524H274V633Q274 712 321 749T444 787Q476 787 503 783T555 771V712Q532 719 505 723T445 728Q394 728 369 707T343 628V524H555V467H343V0Z" />
<glyph unicode="g" glyph-name="g" horiz-adv-x="640" d="M480 303Q480 337 470 369T438 426T385 466T310 481Q268 481 237 466T184 422T153 354T143 269Q143 224 151 185T180 118T232 74T311 58Q351 58 382 72T435 110T468 165T480 230V303ZM313 -199Q221 -199
163 -163T93 -56H161Q171 -97 206 -120T314 -143Q349 -143 379 -135T431 -108T466 -57T479 22V105H477Q453 60 406 31T293 2Q254 2 215 15T143 60T91 143T71 269Q71 335 88 385T137 468T212 519T306 537Q341 537 369 528T419 505T456 473T480 435H482V524H548V21Q548
-36 531 -77T482 -146T407 -186T313 -199Z" />
<glyph unicode="h" glyph-name="h" horiz-adv-x="640" d="M460 0V335Q460 367 456 393T437 439Q408 478 343 478Q302 478 272 464T223 427T194 374T185 309V0H116V788H185V432H187Q197 454 211 473T247 506T295 528T358 537Q530 537 530 351V0H460Z" />
<glyph unicode="i" glyph-name="i" horiz-adv-x="640" d="M267 748H378V634H267V748ZM99 0V57H295V468H127V524H363V57H563V0H99Z" />
<glyph unicode="j" glyph-name="j" horiz-adv-x="640" d="M324 634V748H435V634H324ZM251 -197Q219 -197 193 -193T141 -182V-121Q164 -128 190 -132T247 -136Q301 -136 327 -111T353 -29V467H141V524H420V-37Q420 -117 374 -157T251 -197Z" />
<glyph unicode="k" glyph-name="k" horiz-adv-x="640" d="M206 0H139V788H206V251L463 524H546L355 323L580 0H498L307 275L206 168V0Z" />
<glyph unicode="l" glyph-name="l" horiz-adv-x="640" d="M92 0V57H289V731H121V788H358V57H558V0H92Z" />
<glyph unicode="m" glyph-name="m" horiz-adv-x="640" d="M65 524H124V446H127Q138 486 166 511T241 537Q289 537 313 510T345 443H348Q359 486 387 511T464 537Q521 537 549 503T577 393V0H508V378Q508 423 496 451T443 479Q396 479 376 437T355 327V0H287V379Q287
424 274 451T222 479Q174 479 154 437T133 328V0H65V524Z" />
<glyph unicode="n" glyph-name="n" horiz-adv-x="640" d="M460 334Q460 366 456 393T437 439Q408 478 343 478Q302 478 272 464T223 427T194 374T185 309V0H116V524H181V431H183Q204 476 246 506T358 537Q530 537 530 351V0H460V334Z" />
<glyph unicode="o" glyph-name="o" horiz-adv-x="640" d="M320 -13Q261 -13 217 6T142 62T97 148T81 262Q81 325 96 376T142 462T217 517T320 537Q379 537 423 518T498 463T543 376T559 262Q559 199 544 148T498 62T423 7T320 -13ZM320 482Q235 482 193 423T151
262Q151 161 192 102T320 42Q406 42 447 101T489 262Q489 364 447 423T320 482Z" />
<glyph unicode="p" glyph-name="p" horiz-adv-x="640" d="M165 228Q165 193 175 160T206 100T259 59T334 43Q417 43 458 103T500 268Q500 312 492 351T464 419T414 464T336 481Q294 481 262 466T209 427T176 370T165 304V228ZM97 524H163V431H165Q191 480 238
508T349 537Q392 537 432 524T503 479T552 396T571 268Q571 197 553 144T502 56T428 4T338 -13Q306 -13 279 -5T230 18T192 50T169 87H167V-188H97V524Z" />
<glyph unicode="q" glyph-name="q" horiz-adv-x="640" d="M544 -188H474V86H471Q462 68 447 50T410 18T362 -4T300 -13Q259 -13 218 0T144 44T91 128T70 259Q70 326 87 378T135 465T209 518T306 537Q367 537 411 510T475 436H477V524H544V-188ZM306 43Q349 43
381 58T434 97T465 154T476 219V301Q476 338 465 370T433 427T382 466T312 481Q268 481 236 465T183 420T152 351T141 263Q141 214 150 174T180 104T231 59T306 43Z" />
<glyph unicode="r" glyph-name="r" horiz-adv-x="640" d="M422 469Q336 469 284 416T231 256V0H161V524H226V397H228Q249 461 299 497T433 534Q501 534 546 511V445Q519 456 490 462T422 469Z" />
<glyph unicode="s" glyph-name="s" horiz-adv-x="640" d="M455 398Q446 441 414 462T322 483Q263 483 230 459T196 390Q196 347 221 328T291 303L381 291Q466 280 500 245T534 149Q534 76 480 32T316 -13Q274 -13 237 -5T173 22T127 71T104 147H171Q177 96 212
69T316 41Q388 41 427 67T466 144Q466 182 445 202T365 230L274 243Q208 253 169 285T130 386Q130 417 142 445T178 493T238 525T323 537Q415 537 464 500T522 398H455Z" />
<glyph unicode="t" glyph-name="t" horiz-adv-x="640" d="M254 467H61V524H197Q234 524 245 537T257 587V685H323V524H541V467H323V141Q323 89 350 69T425 48Q457 48 485 53T541 67V8Q520 0 491 -6T422 -12Q375 -12 343 -2T291 28T263 76T254 140V467Z" />
<glyph unicode="u" glyph-name="u" horiz-adv-x="640" d="M180 189Q180 157 184 129T203 82Q232 45 298 45Q376 45 415 98T454 241V524H523V0H458V97H456Q446 75 431 55T394 20T345 -4T284 -13Q111 -13 111 166V524H180V189Z" />
<glyph unicode="v" glyph-name="v" horiz-adv-x="640" d="M71 524H142L289 154Q294 140 299 125T310 97Q315 82 320 68H325Q329 82 334 97Q339 110 344 125T355 154L502 524H569L359 0H281L71 524Z" />
<glyph unicode="w" glyph-name="w" horiz-adv-x="640" d="M39 524H105L179 138Q181 127 182 116T185 94Q187 83 188 71H192Q193 83 195 95Q197 105 199 116T203 138L285 524H358L439 138Q441 130 442 119T446 96Q448 84 450 71H454Q455 84 457 96Q459 107 460
118T463 138L536 524H601L492 0H412L339 342Q335 359 332 376T327 407Q324 424 322 439H318Q316 424 313 407Q311 393 308 376T301 342L229 0H148L39 524Z" />
<glyph unicode="x" glyph-name="x" horiz-adv-x="640" d="M280 271L95 524H174L320 323H324L467 524H539L358 274L559 0H478L318 222H315L153 0H80L280 271Z" />
<glyph unicode="y" glyph-name="y" horiz-adv-x="640" d="M86 524H159L299 160Q305 144 310 130T319 104Q323 91 328 78H331Q336 90 340 104Q344 116 349 131T360 161L496 524H566L345 -42Q328 -86 310 -116T271 -164T224 -191T163 -199Q136 -199 118 -195T87
-188V-130Q102 -134 120 -137T161 -141Q185 -141 202 -136T231 -118T254 -88T275 -45L293 -1L86 524Z" />
<glyph unicode="z" glyph-name="z" horiz-adv-x="640" d="M116 524H530V465L178 58H538V0H99V61L449 466H116V524Z" />
<glyph unicode="{" glyph-name="braceleft" horiz-adv-x="640" d="M138 298V361H181Q229 361 246 379T264 440V634Q264 711 311 749T468 788H489V732Q439 732 408 727T360 708T336 674T330 622V449Q330 430 327 411T316 375T291 347T249 331V327Q275 323 291 311T315
283T327 247T330 209V36Q330 5 336 -16T359 -50T408 -68T489 -74V-130H468Q358 -130 311 -94T264 23V219Q264 262 247 280T181 298H138Z" />
<glyph unicode="|" glyph-name="bar" horiz-adv-x="640" d="M289 788H350V-130H289V788Z" />
<glyph unicode="}" glyph-name="braceright" horiz-adv-x="640" d="M502 360V297H459Q411 297 394 279T376 218V21Q376 -56 329 -93T172 -130H151V-74Q201 -74 232 -69T280 -50T304 -16T310 36V209Q310 228 313 247T324 282T349 311T391 327V331Q365 335 349 347T325
375T313 411T310 449V622Q310 653 304 674T281 708T232 726T151 732V788H172Q282 788 329 752T376 635V439Q376 396 393 378T459 360H502Z" />
<glyph unicode="~" glyph-name="asciitilde" horiz-adv-x="640" d="M100 297Q99 354 129 389T211 424Q239 424 269 413T329 390T385 366T430 355Q450 355 465 371T483 425H538Q538 368 508 333T427 298Q399 298 369 308T310 332T255 355T208 366Q188 366 172 351T154
297H100V297Z" />
<glyph unicode="&#xa0;" glyph-name="uni00A0" horiz-adv-x="640" />
<glyph unicode="&#xa1;" glyph-name="exclamdown" horiz-adv-x="640" d="M362 -188H286L296 379H352L362 -188ZM379 600V485H269V600H379Z" />
<glyph unicode="&#xa2;" glyph-name="cent" horiz-adv-x="640" d="M546 161Q535 81 484 38T359 -12V-116H305V-12Q203 -1 152 71T101 258Q101 313 114 361T154 446T218 506T305 536V635H359V537Q393 535 424 525T481 496T523 448T545 378H476Q474 396 466 413T443
445T407 469T359 482V43Q390 46 411 58T446 87T467 123T479 161H546ZM305 480Q242 467 207 411T172 263Q172 171 203 113T305 44V480Z" />
<glyph unicode="&#xa3;" glyph-name="sterling" horiz-adv-x="640" d="M573 0H81V57L123 91Q153 115 172 138T200 187T206 247T186 327H71V382H166L150 424Q120 502 126 563T162 666T241 730T349 752Q457 752 513 694T571 536H503Q502 566 494 594T469 645T423
681T351 695Q306 695 272 679T218 631T197 551T219 438L239 382H473V327H258Q271 283 272 248T265 184T238 130T192 83L166 63V61H573V0Z" />
<glyph unicode="&#xa4;" glyph-name="currency" horiz-adv-x="640" d="M190 346Q190 318 200 294T227 251T268 223T319 212Q346 212 370 222T411 251T438 293T448 346Q448 374 438 399T411 442T370 470T319 481Q292 481 268 471T227 442T200 399T190 346ZM425
198Q390 174 349 167V63H289V167Q267 171 248 179T211 198L133 119L91 160L171 239Q160 256 152 275T139 317H37V377H140Q148 419 171 452L94 530L136 572L212 495Q229 506 248 514T289 526V630H349V526Q370 522 389 514T426 494L507 575L548 534L467 453Q478 436
485 417T497 377H602V317H498Q494 295 486 276T467 240L544 163L502 120L425 198Z" />
<glyph unicode="&#xa5;" glyph-name="yen" horiz-adv-x="640" d="M287 174H86V228H287V325H84V380H276L65 741H143L319 422H321L502 741H575L363 380H551V325H353V228H553V174H353V0H287V174Z" />
<glyph unicode="&#xa6;" glyph-name="brokenbar" horiz-adv-x="640" d="M350 384H289V788H350V384ZM289 -130V312H350V-130H289Z" />
<glyph unicode="&#xa7;" glyph-name="section" horiz-adv-x="640" d="M149 370Q149 330 166 308T228 266L360 205Q378 197 390 191T413 178Q453 189 475 211T497 273Q497 308 479 331T415 376L285 435Q267 443 257 449T234 462Q199 454 174 431T149 370ZM81 361Q81
416 112 448T187 496V498Q164 520 155 543T146 599Q146 632 159 660T196 708T255 740T332 751Q417 751 466 709T517 592H450Q448 613 442 632T421 665T385 688T331 697Q273 697 243 671T213 604Q213 583 218 568T233 542T257 523T292 505L448 433Q481 418 503 402T539
368T559 330T565 285Q565 229 535 195T457 144V141Q483 119 492 96T502 40Q502 -26 454 -69T308 -112Q256 -112 219 -99T156 -63T119 -9T105 61H171Q174 35 183 14T208 -23T250 -47T312 -56Q378 -56 405 -30T433 35Q433 55 429 69T414 96T386 118T343 140L205 203Q174
217 151 232T112 265T89 306T81 361Z" />
<glyph unicode="&#xa8;" glyph-name="dieresis" horiz-adv-x="640" d="M164 746H273V634H164V746ZM365 634V746H473V634H365Z" />
<glyph unicode="&#xa9;" glyph-name="copyright" horiz-adv-x="640" d="M50 422Q50 498 64 563T111 676T194 750T320 777Q394 777 445 750T529 676T575 563T590 422V340Q590 262 576 197T529 84T445 10T320 -16Q246 -16 195 10T112 83T65 195T50 340V422ZM104
341Q104 276 114 220T150 121T216 55T320 30Q383 30 424 54T490 121T525 219T536 341V422Q536 484 526 540T491 638T425 705T320 730Q257 730 216 705T150 638T115 540T104 422V341ZM449 302Q445 231 413 196T327 161Q291 161 265 172T222 210T197 277T189 378Q189
500 225 551T327 602Q350 602 371 595T409 572T436 531T447 469H389Q388 504 376 527T326 551Q308 551 294 543T270 514T255 462T249 381Q249 333 253 301T267 249T292 221T328 212Q360 212 374 238T390 302H449Z" />
<glyph unicode="&#xaa;" glyph-name="ordfeminine" horiz-adv-x="640" d="M275 359Q305 359 330 369T374 398T403 446T414 510V520Q339 515 290 512T219 493Q192 473 192 436Q192 398 214 379T275 359ZM413 386Q389 348 352 327T265 306Q196 306 160 339T124 433Q124
470 142 497T192 539Q227 556 283 560T414 569V592Q414 646 389 673T309 700Q259 700 235 677T206 621H143Q144 649 157 672T192 713T244 741T313 751Q347 751 377 743T429 717T464 667T477 587V410Q477 386 485 375T514 364H530V312H511Q463 312 443 329T417 386H413Z"
/>
<glyph unicode="&#xab;" glyph-name="guillemotleft" horiz-adv-x="640" d="M506 464L384 259L509 57H437L310 260L436 464H506ZM312 464L191 259L315 57H244L116 260L243 464H312Z" />
<glyph unicode="&#xac;" glyph-name="logicalnot" horiz-adv-x="640" d="M487 131V327H92V388H548V131H487Z" />
<glyph unicode="&#xae;" glyph-name="registered" horiz-adv-x="640" d="M74 527Q74 579 92 624T143 704T221 757T319 776Q372 776 417 757T496 704T547 625T566 527Q566 475 548 430T496 352T418 299T319 280Q266 280 221 299T144 351T93 430T74 527ZM319 318Q362
318 399 334T463 378T505 444T521 527Q521 572 506 610T463 677T399 722T319 738Q276 738 240 722T176 678T134 611T119 527Q119 482 134 444T176 378T239 334T319 318ZM326 550Q347 550 360 559T373 591Q373 608 361 618T328 628H277V550H326ZM277 408H232V664H331Q365
664 392 647T419 591Q419 572 414 559T400 538T383 525T364 518L422 408H371L316 513H277V408Z" />
<glyph unicode="&#xaf;" glyph-name="macron" horiz-adv-x="640" d="M174 711H465V647H174V711Z" />
<glyph unicode="&#xb0;" glyph-name="degree" horiz-adv-x="640" d="M113 551Q113 595 128 633T171 698T236 742T319 758Q364 758 401 742T467 699T510 633T526 551Q526 507 511 469T467 403T402 360T319 344Q274 344 237 359T172 403T129 469T113 551ZM319 397Q351
397 377 408T423 441T452 490T463 551Q463 584 453 612T423 660T378 693T319 705Q287 705 261 693T215 661T186 612T175 551Q175 518 185 490T215 441T260 409T319 397Z" />
<glyph unicode="&#xb1;" glyph-name="plusminus" horiz-adv-x="640" d="M350 145H289V341H92V400H289V596H350V400H548V341H350V145ZM92 59H548V0H92V59Z" />
<glyph unicode="&#xb2;" glyph-name="twosuperior" horiz-adv-x="640" d="M141 682Q141 725 154 758T192 815T248 851T319 863Q360 863 392 852T446 820T479 773T491 714Q491 688 485 666T467 622T433 578T382 528L288 447Q273 434 261 424T238 405Q227 396 217
389V387H500V332H129V379L325 552Q353 576 372 595T404 633T421 670T427 712Q427 757 398 784T319 811Q271 811 238 781T202 682H141Z" />
<glyph unicode="&#xb3;" glyph-name="threesuperior" horiz-adv-x="640" d="M275 572V624H325Q374 624 399 652T425 719Q425 762 397 786T321 810Q270 810 241 786T211 706H147Q147 737 158 765T191 815T246 850T323 863Q400 863 445 825T490 726Q490 678 465
648T396 603V601Q418 596 438 587T472 562T495 525T504 473Q504 442 491 415T454 366T396 333T319 321Q271 321 237 334T181 370T148 420T136 479H199Q203 426 236 400T323 373Q372 373 406 400T440 474Q440 524 409 548T328 572H275Z" />
<glyph unicode="&#xb4;" glyph-name="acute" horiz-adv-x="640" d="M320 788H423L313 609H254L320 788Z" />
<glyph unicode="&#xb6;" glyph-name="paragraph" horiz-adv-x="640" d="M504 765V0H441V765H504ZM291 403Q247 404 211 416T149 450T109 506T94 585Q94 633 109 667T152 722T217 754T296 765H354V0H291V403Z" />
<glyph unicode="&#xb7;" glyph-name="periodcentered" horiz-adv-x="640" d="M265 359H376V245H265V359Z" />
<glyph unicode="&#xb8;" glyph-name="cedilla" horiz-adv-x="640" d="M328 -216Q285 -216 262 -197T235 -147H295Q300 -161 308 -166T332 -171Q352 -171 363 -160T375 -129Q375 -110 364 -100T334 -89Q312 -89 298 -103H243L302 33H346L310 -46H346Q386 -46 409
-67T433 -126Q433 -162 406 -189T328 -216Z" />
<glyph unicode="&#xb9;" glyph-name="onesuperior" horiz-adv-x="640" d="M168 332V383H304V713H175V760H214Q268 760 290 781Q304 793 308 810T313 856H366V383H495V332H168Z" />
<glyph unicode="&#xba;" glyph-name="ordmasculine" horiz-adv-x="640" d="M318 305Q268 305 231 321T169 367T132 438T120 528Q120 576 133 617T173 688T235 734T319 751Q371 751 408 735T471 689T508 618T520 528Q520 479 507 438T467 368T404 322T318 305ZM321
358Q386 358 419 402T453 528Q453 610 420 654T318 699Q255 699 221 655T186 528Q186 446 219 402T321 358Z" />
<glyph unicode="&#xbb;" glyph-name="guillemotright" horiz-adv-x="640" d="M134 57L256 262L132 464H204L330 261L205 57H134ZM328 57L449 262L326 464H396L524 261L397 57H328Z" />
<glyph unicode="&#xbc;" glyph-name="onequarter" horiz-adv-x="1920" d="M1243 780H1307L738 -40H673L1243 780ZM1561 140V417H1557Q1553 410 1548 400Q1543 392 1537 381T1522 358L1365 140H1561ZM1619 88V-40H1559V88H1302V136L1549 483H1619V141H1705V88H1619ZM168
257V308H304V638H175V685H214Q268 685 290 706Q304 718 308 735T313 781H366V308H495V257H168Z" />
<glyph unicode="&#xbd;" glyph-name="onehalf" horiz-adv-x="1920" d="M1213 780H1277L708 -40H643L1213 780ZM1321 310Q1321 353 1334 386T1372 443T1428 479T1499 491Q1540 491 1572 480T1626 448T1659 401T1671 342Q1671 316 1665 294T1647 250T1613 206T1562
156L1468 75Q1453 62 1441 52T1418 33Q1407 24 1397 17V15H1680V-40H1309V7L1505 180Q1533 204 1552 223T1584 261T1601 298T1607 340Q1607 385 1578 412T1499 439Q1451 439 1418 409T1382 310H1321ZM168 257V308H304V638H175V685H214Q268 685 290 706Q304 718
308 735T313 781H366V308H495V257H168Z" />
<glyph unicode="&#xbe;" glyph-name="threequarters" horiz-adv-x="1920" d="M1233 780H1297L728 -40H663L1233 780ZM1561 140V417H1557Q1553 410 1548 400Q1543 392 1537 381T1522 358L1365 140H1561ZM1619 88V-40H1559V88H1302V136L1549 483H1619V141H1705V88H1619ZM275
497V549H325Q374 549 399 577T425 644Q425 687 397 711T321 735Q270 735 241 711T211 631H147Q147 662 158 690T191 740T246 775T323 788Q400 788 445 750T490 651Q490 603 465 573T396 528V526Q418 521 438 512T472 487T495 450T504 398Q504 367 491 340T454 291T396
258T319 246Q271 246 237 259T181 295T148 345T136 404H199Q203 351 236 325T323 298Q372 298 406 325T440 399Q440 449 409 473T328 497H275Z" />
<glyph unicode="&#xbf;" glyph-name="questiondown" horiz-adv-x="640" d="M172 1Q172 -63 213 -100T326 -138Q404 -138 450 -88T494 53H559Q561 -5 544 -51T496 -130T421 -180T325 -197Q267 -197 225 -181T156 -138T116 -77T103 -6Q103 32 111 61T135 113T169
157T211 197L245 228Q263 245 274 256T290 279T297 306T299 347V384H362V341Q362 308 360 288T349 251T325 219T285 182L243 145Q207 115 190 81T172 1ZM385 600V485H275V600H385Z" />
<glyph unicode="&#xc0;" glyph-name="Agrave" horiz-adv-x="640" d="M312 695Q312 693 310 683T304 658T297 626T287 591L204 308H429L346 592Q341 609 336 627T328 661Q324 679 321 695H312ZM446 250H187L114 0H43L272 765H365L594 0H518L446 250ZM609 827H548L450
960H552L609 827Z" />
<glyph unicode="&#xc1;" glyph-name="Aacute" horiz-adv-x="640" d="M312 695Q312 693 310 683T304 658T297 626T287 591L204 308H429L346 592Q341 609 336 627T328 661Q324 679 321 695H312ZM446 250H187L114 0H43L272 765H365L594 0H518L446 250ZM350 960H452L354
827H293L350 960Z" />
<glyph unicode="&#xc2;" glyph-name="Acircumflex" horiz-adv-x="640" d="M312 695Q312 693 310 683T304 658T297 626T287 591L204 308H429L346 592Q341 609 336 627T328 661Q324 679 321 695H312ZM446 250H187L114 0H43L272 765H365L594 0H518L446 250ZM467 827H398L318
903H316L238 827H173L277 960H360L467 827Z" />
<glyph unicode="&#xc3;" glyph-name="Atilde" horiz-adv-x="640" d="M312 695Q312 693 310 683T304 658T297 626T287 591L204 308H429L346 592Q341 609 336 627T328 661Q324 679 321 695H312ZM446 250H187L114 0H43L272 765H365L594 0H518L446 250ZM141 827Q142
855 148 879T167 922T200 950T247 961Q272 961 292 950T329 927T362 903T395 892Q421 892 430 910T443 964H501Q500 937 494 913T475 870T442 840T395 829Q370 829 350 840T312 864T279 888T247 899Q222 899 212 881T200 827H141V827Z" />
<glyph unicode="&#xc4;" glyph-name="Adieresis" horiz-adv-x="640" d="M312 695Q312 693 310 683T304 658T297 626T287 591L204 308H429L346 592Q341 609 336 627T328 661Q324 679 321 695H312ZM446 250H187L114 0H43L272 765H365L594 0H518L446 250ZM365 947H473V834H365V947ZM164
947H273V834H164V947Z" />
<glyph unicode="&#xc5;" glyph-name="Aring" horiz-adv-x="640" d="M312 695Q312 693 310 683T304 658T297 626T287 591L204 308H429L346 592Q341 609 336 627T328 661Q324 679 321 695H312ZM446 250H187L114 0H43L272 765H365L594 0H518L446 250ZM318 799Q262
799 228 833T194 922Q194 976 228 1011T318 1046Q346 1046 369 1037T409 1011T434 972T443 922Q443 868 409 834T318 799ZM318 1002Q285 1002 266 979T246 922Q246 887 265 866T318 844Q352 844 371 865T391 922Q391 956 372 979T318 1002Z" />
<glyph unicode="&#xc6;" glyph-name="AE" horiz-adv-x="640" d="M330 703H311L171 296H330V703ZM70 0H2L268 765H625V703H396V420H588V360H396V62H629V0H330V239H152L70 0Z" />
<glyph unicode="&#xc7;" glyph-name="Ccedilla" horiz-adv-x="640" d="M332 -217Q289 -217 266 -198T239 -148H299Q304 -162 312 -167T336 -172Q356 -172 367 -161T379 -130Q379 -111 368 -101T338 -90Q316 -90 302 -104H247L287 -13Q234 -6 192 20T121 94T77
212T62 379Q62 580 131 678T338 777Q386 777 428 762T502 718T554 646T580 545H508Q505 576 494 607T463 663T412 703T337 719Q279 719 241 696T179 630T147 523T137 379Q137 212 184 127T339 42Q382 42 412 57T463 98T494 156T508 222H578Q573 169 555 125T505
50T430 1T335 -16H328L314 -47H350Q390 -47 413 -68T437 -127Q437 -163 410 -190T332 -217Z" />
<glyph unicode="&#xc8;" glyph-name="Egrave" horiz-adv-x="640" d="M634 827H573L475 960H577L634 827ZM106 765H552V703H177V420H507V360H177V62H556V0H106V765Z" />
<glyph unicode="&#xc9;" glyph-name="Eacute" horiz-adv-x="640" d="M352 960H454L356 827H295L352 960ZM106 765H552V703H177V420H507V360H177V62H556V0H106V765Z" />
<glyph unicode="&#xca;" glyph-name="Ecircumflex" horiz-adv-x="640" d="M482 827H413L333 903H331L253 827H188L292 960H375L482 827ZM106 765H552V703H177V420H507V360H177V62H556V0H106V765Z" />
<glyph unicode="&#xcb;" glyph-name="Edieresis" horiz-adv-x="640" d="M106 765H552V703H177V420H507V360H177V62H556V0H106V765ZM388 947H496V834H388V947ZM187 947H296V834H187V947Z" />
<glyph unicode="&#xcc;" glyph-name="Igrave" horiz-adv-x="640" d="M355 58H534V0H106V58H285V707H106V765H534V707H355V58ZM609 827H548L450 960H552L609 827Z" />
<glyph unicode="&#xcd;" glyph-name="Iacute" horiz-adv-x="640" d="M355 58H534V0H106V58H285V707H106V765H534V707H355V58ZM353 960H455L357 827H296L353 960Z" />
<glyph unicode="&#xce;" glyph-name="Icircumflex" horiz-adv-x="640" d="M355 58H534V0H106V58H285V707H106V765H534V707H355V58ZM467 827H398L318 903H316L238 827H173L277 960H360L467 827Z" />
<glyph unicode="&#xcf;" glyph-name="Idieresis" horiz-adv-x="640" d="M355 58H534V0H106V58H285V707H106V765H534V707H355V58ZM367 947H475V834H367V947ZM166 947H275V834H166V947Z" />
<glyph unicode="&#xd0;" glyph-name="Eth" horiz-adv-x="640" d="M86 0V360H11V420H86V765H252Q321 765 381 745T488 679T560 562T587 388Q587 284 562 211T492 91T387 22T258 0H86ZM252 62Q307 62 354 78T437 131T492 231T512 385Q512 471 492 531T438 630T356
686T256 704H157V420H354V360H157V62H252Z" />
<glyph unicode="&#xd1;" glyph-name="Ntilde" horiz-adv-x="640" d="M157 827Q158 855 164 879T183 922T216 950T263 961Q288 961 308 950T345 927T378 903T411 892Q437 892 446 910T459 964H517Q516 937 510 913T491 870T458 840T411 829Q386 829 366 840T328
864T295 888T263 899Q238 899 228 881T216 827H157V827ZM80 765H177L453 175Q462 155 468 138T480 108Q485 93 489 81H495V765H560V0H463L192 578Q182 599 174 618T161 652Q155 669 150 684H145V0H80V765Z" />
<glyph unicode="&#xd2;" glyph-name="Ograve" horiz-adv-x="640" d="M611 827H550L452 960H554L611 827ZM55 380Q55 490 75 566T130 688T214 755T321 776Q383 776 432 756T515 689T567 566T585 380Q585 270 566 195T511 72T427 5T319 -16Q256 -16 207 4T124 72T73
194T55 380ZM320 41Q369 41 404 60T463 120T498 225T510 380Q510 473 499 538T465 643T405 701T320 719Q272 719 237 700T178 640T142 535T130 380Q130 291 141 227T175 121T234 61T320 41Z" />
<glyph unicode="&#xd3;" glyph-name="Oacute" horiz-adv-x="640" d="M345 960H447L349 827H288L345 960ZM55 380Q55 490 75 566T130 688T214 755T321 776Q383 776 432 756T515 689T567 566T585 380Q585 270 566 195T511 72T427 5T319 -16Q256 -16 207 4T124 72T73
194T55 380ZM320 41Q369 41 404 60T463 120T498 225T510 380Q510 473 499 538T465 643T405 701T320 719Q272 719 237 700T178 640T142 535T130 380Q130 291 141 227T175 121T234 61T320 41Z" />
<glyph unicode="&#xd4;" glyph-name="Ocircumflex" horiz-adv-x="640" d="M467 827H398L318 903H316L238 827H173L277 960H360L467 827ZM55 380Q55 490 75 566T130 688T214 755T321 776Q383 776 432 756T515 689T567 566T585 380Q585 270 566 195T511 72T427 5T319
-16Q256 -16 207 4T124 72T73 194T55 380ZM320 41Q369 41 404 60T463 120T498 225T510 380Q510 473 499 538T465 643T405 701T320 719Q272 719 237 700T178 640T142 535T130 380Q130 291 141 227T175 121T234 61T320 41Z" />
<glyph unicode="&#xd5;" glyph-name="Otilde" horiz-adv-x="640" d="M149 827Q150 855 156 879T175 922T208 950T255 961Q280 961 300 950T337 927T370 903T403 892Q429 892 438 910T451 964H509Q508 937 502 913T483 870T450 840T403 829Q378 829 358 840T320
864T287 888T255 899Q230 899 220 881T208 827H149V827ZM55 380Q55 490 75 566T130 688T214 755T321 776Q383 776 432 756T515 689T567 566T585 380Q585 270 566 195T511 72T427 5T319 -16Q256 -16 207 4T124 72T73 194T55 380ZM320 41Q369 41 404 60T463 120T498
225T510 380Q510 473 499 538T465 643T405 701T320 719Q272 719 237 700T178 640T142 535T130 380Q130 291 141 227T175 121T234 61T320 41Z" />
<glyph unicode="&#xd6;" glyph-name="Odieresis" horiz-adv-x="640" d="M367 947H475V834H367V947ZM166 947H275V834H166V947ZM55 380Q55 490 75 566T130 688T214 755T321 776Q383 776 432 756T515 689T567 566T585 380Q585 270 566 195T511 72T427 5T319 -16Q256
-16 207 4T124 72T73 194T55 380ZM320 41Q369 41 404 60T463 120T498 225T510 380Q510 473 499 538T465 643T405 701T320 719Q272 719 237 700T178 640T142 535T130 380Q130 291 141 227T175 121T234 61T320 41Z" />
<glyph unicode="&#xd7;" glyph-name="multiply" horiz-adv-x="640" d="M107 179L277 350L107 523L150 566L320 393L489 565L532 522L362 351L533 177L489 134L319 308L150 136L107 179Z" />
<glyph unicode="&#xd8;" glyph-name="Oslash" horiz-adv-x="640" d="M320 719Q272 719 237 700T177 640T141 535T129 380Q129 314 134 263T152 172L465 647Q442 685 406 702T320 719ZM320 41Q369 41 405 60T464 120T499 225T511 380Q511 449 506 501T488 593L175
118Q198 78 233 60T320 41ZM585 380Q585 270 566 195T511 72T427 5T319 -16Q262 -16 216 1T136 59L81 -25H22L106 103Q81 151 68 218T55 380Q55 490 75 566T130 688T214 755T321 776Q377 776 422 759T501 702L561 793H620L531 659Q557 611 571 543T585 380Z" />
<glyph unicode="&#xd9;" glyph-name="Ugrave" horiz-adv-x="640" d="M617 827H556L458 960H560L617 827ZM75 765H146V250Q146 202 155 165T185 101T239 61T322 47Q371 47 404 61T457 101T486 164T495 250V765H565V246Q565 175 548 126T498 45T421 -1T320 -15Q264
-15 219 -1T141 44T92 126T75 247V765Z" />
<glyph unicode="&#xda;" glyph-name="Uacute" horiz-adv-x="640" d="M348 960H450L352 827H291L348 960ZM75 765H146V250Q146 202 155 165T185 101T239 61T322 47Q371 47 404 61T457 101T486 164T495 250V765H565V246Q565 175 548 126T498 45T421 -1T320 -15Q264
-15 219 -1T141 44T92 126T75 247V765Z" />
<glyph unicode="&#xdb;" glyph-name="Ucircumflex" horiz-adv-x="640" d="M470 827H401L321 903H319L241 827H176L280 960H363L470 827ZM75 765H146V250Q146 202 155 165T185 101T239 61T322 47Q371 47 404 61T457 101T486 164T495 250V765H565V246Q565 175 548
126T498 45T421 -1T320 -15Q264 -15 219 -1T141 44T92 126T75 247V765Z" />
<glyph unicode="&#xdc;" glyph-name="Udieresis" horiz-adv-x="640" d="M75 765H146V250Q146 202 155 165T185 101T239 61T322 47Q371 47 404 61T457 101T486 164T495 250V765H565V246Q565 175 548 126T498 45T421 -1T320 -15Q264 -15 219 -1T141 44T92 126T75
247V765ZM370 947H478V834H370V947ZM169 947H278V834H169V947Z" />
<glyph unicode="&#xdd;" glyph-name="Yacute" horiz-adv-x="640" d="M285 337L42 765H122L322 400H323L525 765H599L356 338V0H285V337ZM357 960H459L361 827H300L357 960Z" />
<glyph unicode="&#xde;" glyph-name="Thorn" horiz-adv-x="640" d="M330 237Q413 239 454 275T495 389Q495 472 453 505T328 539H186V237H324H330ZM186 177V0H116V765H186V599H328Q381 599 425 588T500 551T549 486T567 389Q567 335 550 295T500 229T423 190T321
177H186Z" />
<glyph unicode="&#xdf;" glyph-name="germandbls" horiz-adv-x="640" d="M119 566Q119 626 136 667T181 734T246 771T322 783Q367 783 404 772T469 736T512 676T528 591Q528 532 500 488T415 422V420Q446 414 474 401T523 363T557 305T570 224Q570 168 552 126T500
56T422 14T322 0H287V58H322Q361 58 393 67T449 96T486 147T499 221Q499 298 455 341T325 385H305V446H324Q386 446 421 484T457 588Q457 658 420 692T323 726Q294 726 270 717T227 689T199 637T188 558V0H119V566Z" />
<glyph unicode="&#xe0;" glyph-name="agrave" horiz-adv-x="640" d="M163 143Q163 95 193 72T273 48Q303 48 332 59T385 93T423 152T438 236V258Q337 252 282 244T201 218Q163 191 163 143ZM439 101Q416 49 370 21T261 -8Q184 -8 139 31T93 140Q93 185 112 216T167
266Q207 288 273 297T439 312V334Q439 369 434 396T414 442T374 471T310 481Q277 481 254 473T215 451T191 420T181 383H114Q117 414 130 441T168 490T228 524T309 537Q365 537 402 522T463 481T495 418T505 338V104Q505 77 514 67T549 56H568V0H544Q486 0 465
24T442 101H439ZM552 609L441 788H545L610 609H552Z" />
<glyph unicode="&#xe1;" glyph-name="aacute" horiz-adv-x="640" d="M163 143Q163 95 193 72T273 48Q303 48 332 59T385 93T423 152T438 236V258Q337 252 282 244T201 218Q163 191 163 143ZM439 101Q416 49 370 21T261 -8Q184 -8 139 31T93 140Q93 185 112 216T167
266Q207 288 273 297T439 312V334Q439 369 434 396T414 442T374 471T310 481Q277 481 254 473T215 451T191 420T181 383H114Q117 414 130 441T168 490T228 524T309 537Q365 537 402 522T463 481T495 418T505 338V104Q505 77 514 67T549 56H568V0H544Q486 0 465
24T442 101H439ZM348 788H451L341 609H282L348 788Z" />
<glyph unicode="&#xe2;" glyph-name="acircumflex" horiz-adv-x="640" d="M163 143Q163 95 193 72T273 48Q303 48 332 59T385 93T423 152T438 236V258Q337 252 282 244T201 218Q163 191 163 143ZM439 101Q416 49 370 21T261 -8Q184 -8 139 31T93 140Q93 185 112
216T167 266Q207 288 273 297T439 312V334Q439 369 434 396T414 442T374 471T310 481Q277 481 254 473T215 451T191 420T181 383H114Q117 414 130 441T168 490T228 524T309 537Q365 537 402 522T463 481T495 418T505 338V104Q505 77 514 67T549 56H568V0H544Q486
0 465 24T442 101H439ZM470 609H404L320 731H316L233 609H174L278 788H363L470 609Z" />
<glyph unicode="&#xe3;" glyph-name="atilde" horiz-adv-x="640" d="M163 143Q163 95 193 72T273 48Q303 48 332 59T385 93T423 152T438 236V258Q337 252 282 244T201 218Q163 191 163 143ZM439 101Q416 49 370 21T261 -8Q184 -8 139 31T93 140Q93 185 112 216T167
266Q207 288 273 297T439 312V334Q439 369 434 396T414 442T374 471T310 481Q277 481 254 473T215 451T191 420T181 383H114Q117 414 130 441T168 490T228 524T309 537Q365 537 402 522T463 481T495 418T505 338V104Q505 77 514 67T549 56H568V0H544Q486 0 465
24T442 101H439ZM398 623Q398 651 404 675T423 718T455 748T502 759Q527 759 546 748T583 724T616 700T649 689Q675 689 685 707T697 761H754Q754 733 748 709T728 666T696 637T650 626Q625 626 605 637T568 661T535 686T504 697Q480 697 469 678T456 623H398V623Z"
/>
<glyph unicode="&#xe4;" glyph-name="adieresis" horiz-adv-x="640" d="M163 143Q163 95 193 72T273 48Q303 48 332 59T385 93T423 152T438 236V258Q337 252 282 244T201 218Q163 191 163 143ZM439 101Q416 49 370 21T261 -8Q184 -8 139 31T93 140Q93 185 112
216T167 266Q207 288 273 297T439 312V334Q439 369 434 396T414 442T374 471T310 481Q277 481 254 473T215 451T191 420T181 383H114Q117 414 130 441T168 490T228 524T309 537Q365 537 402 522T463 481T495 418T505 338V104Q505 77 514 67T549 56H568V0H544Q486
0 465 24T442 101H439ZM164 746H273V634H164V746ZM365 634V746H473V634H365Z" />
<glyph unicode="&#xe5;" glyph-name="aring" horiz-adv-x="640" d="M163 143Q163 95 193 72T273 48Q303 48 332 59T385 93T423 152T438 236V258Q337 252 282 244T201 218Q163 191 163 143ZM439 101Q416 49 370 21T261 -8Q184 -8 139 31T93 140Q93 185 112 216T167
266Q207 288 273 297T439 312V334Q439 369 434 396T414 442T374 471T310 481Q277 481 254 473T215 451T191 420T181 383H114Q117 414 130 441T168 490T228 524T309 537Q365 537 402 522T463 481T495 418T505 338V104Q505 77 514 67T549 56H568V0H544Q486 0 465
24T442 101H439ZM448 965Q448 992 457 1015T482 1054T521 1080T572 1090Q629 1090 663 1055T697 965Q697 911 663 877T572 842Q516 842 482 876T448 965ZM572 887Q606 887 625 909T645 965Q645 1000 626 1022T572 1045Q539 1045 520 1023T500 965Q500 931 519 909T572
887Z" />
<glyph unicode="&#xe6;" glyph-name="ae" horiz-adv-x="640" d="M542 307Q542 344 539 376T525 431T495 467T445 481Q415 481 396 468T365 431T348 374T342 300H542V307ZM167 45Q217 45 247 89T278 213V249Q236 249 210 248T166 245T138 237T118 225Q85 199 85
144Q85 96 105 71T167 45ZM603 131Q592 66 553 28T448 -10Q384 -10 352 20T306 102H303Q283 48 249 19T155 -10Q92 -10 55 30T17 139Q17 188 37 222T88 273Q103 281 118 286T154 295T204 299T278 301V367Q278 417 258 449T189 482Q143 482 121 455T98 385H36Q36
416 46 443T75 492T123 525T189 537Q217 537 238 530T275 510T301 482T317 449H321Q336 486 368 511T453 537Q497 537 527 519T575 470T601 396T609 304V248L342 247Q343 147 365 96T450 45Q474 45 490 54T516 76T531 104T539 131H603Z" />
<glyph unicode="&#xe7;" glyph-name="ccedilla" horiz-adv-x="640" d="M331 -216Q288 -216 265 -197T238 -147H298Q303 -161 311 -166T335 -171Q355 -171 366 -160T378 -129Q378 -110 367 -100T337 -89Q315 -89 301 -103H246L287 -9Q191 5 145 75T97 259Q97 320
113 371T160 460T236 517T340 538Q376 538 411 530T475 502T524 452T550 378H480Q477 397 467 415T440 448T397 472T339 481Q258 481 214 424T170 264Q170 212 179 171T209 102T260 58T336 43Q372 43 398 53T441 80T468 118T482 161H552Q538 76 479 32T335 -13H328L313
-46H349Q389 -46 412 -67T436 -126Q436 -162 409 -189T331 -216Z" />
<glyph unicode="&#xe8;" glyph-name="egrave" horiz-adv-x="640" d="M480 305Q480 336 474 367T450 424T404 466T330 482Q252 482 211 432T162 300H480V305ZM541 131Q526 68 472 28T333 -13Q271 -13 226 6T150 61T106 146T91 258Q91 318 106 369T152 457T227 516T331
537Q392 537 433 516T501 460T538 380T550 289V246H160Q164 150 205 97T335 43Q372 43 397 52T438 76T462 105T475 131H541ZM562 609L451 788H555L620 609H562Z" />
<glyph unicode="&#xe9;" glyph-name="eacute" horiz-adv-x="640" d="M361 788H464L354 609H295L361 788ZM480 305Q480 336 474 367T450 424T404 466T330 482Q252 482 211 432T162 300H480V305ZM541 131Q526 68 472 28T333 -13Q271 -13 226 6T150 61T106 146T91
258Q91 318 106 369T152 457T227 516T331 537Q392 537 433 516T501 460T538 380T550 289V246H160Q164 150 205 97T335 43Q372 43 397 52T438 76T462 105T475 131H541Z" />
<glyph unicode="&#xea;" glyph-name="ecircumflex" horiz-adv-x="640" d="M483 609H417L333 731H329L246 609H187L291 788H376L483 609ZM480 305Q480 336 474 367T450 424T404 466T330 482Q252 482 211 432T162 300H480V305ZM541 131Q526 68 472 28T333 -13Q271
-13 226 6T150 61T106 146T91 258Q91 318 106 369T152 457T227 516T331 537Q392 537 433 516T501 460T538 380T550 289V246H160Q164 150 205 97T335 43Q372 43 397 52T438 76T462 105T475 131H541Z" />
<glyph unicode="&#xeb;" glyph-name="edieresis" horiz-adv-x="640" d="M177 746H286V634H177V746ZM378 634V746H486V634H378ZM480 305Q480 336 474 367T450 424T404 466T330 482Q252 482 211 432T162 300H480V305ZM541 131Q526 68 472 28T333 -13Q271 -13 226
6T150 61T106 146T91 258Q91 318 106 369T152 457T227 516T331 537Q392 537 433 516T501 460T538 380T550 289V246H160Q164 150 205 97T335 43Q372 43 397 52T438 76T462 105T475 131H541Z" />
<glyph unicode="&#xec;" glyph-name="igrave" horiz-adv-x="640" d="M99 0V57H295V468H127V524H363V57H563V0H99ZM550 609L439 788H543L608 609H550Z" />
<glyph unicode="&#xed;" glyph-name="iacute" horiz-adv-x="640" d="M362 788H465L355 609H296L362 788ZM99 0V57H295V468H127V524H363V57H563V0H99Z" />
<glyph unicode="&#xee;" glyph-name="icircumflex" horiz-adv-x="640" d="M720 609H654L570 731H566L483 609H424L528 788H613L720 609ZM99 0V57H295V468H127V524H363V57H563V0H99Z" />
<glyph unicode="&#xef;" glyph-name="idieresis" horiz-adv-x="640" d="M417 746H526V634H417V746ZM618 634V746H726V634H618ZM99 0V57H295V468H127V524H363V57H563V0H99Z" />
<glyph unicode="&#xf0;" glyph-name="eth" horiz-adv-x="640" d="M319 -13Q258 -13 213 7T138 64T94 151T79 262Q79 323 95 374T142 461T215 517T313 537Q357 537 385 524T437 489H442Q420 532 391 571T325 648L176 595L159 644L281 687Q233 729 171 768L234 790Q263
773 291 753T346 710L470 754L487 705L387 670Q424 631 455 585T510 489T545 385T558 274Q558 141 498 64T319 -13ZM319 483Q235 483 193 423T150 262Q150 161 192 102T320 42Q403 42 444 102T486 263Q486 379 444 431T319 483Z" />
<glyph unicode="&#xf1;" glyph-name="ntilde" horiz-adv-x="640" d="M460 334Q460 366 456 393T437 439Q408 478 343 478Q302 478 272 464T223 427T194 374T185 309V0H116V524H181V431H183Q204 476 246 506T358 537Q530 537 530 351V0H460V334ZM148 623Q148 651
154 675T173 718T205 748T252 759Q277 759 296 748T333 724T366 700T399 689Q425 689 435 707T447 761H504Q504 733 498 709T478 666T446 637T400 626Q375 626 355 637T318 661T285 686T254 697Q230 697 219 678T206 623H148V623Z" />
<glyph unicode="&#xf2;" glyph-name="ograve" horiz-adv-x="640" d="M320 -13Q261 -13 217 6T142 62T97 148T81 262Q81 325 96 376T142 462T217 517T320 537Q379 537 423 518T498 463T543 376T559 262Q559 199 544 148T498 62T423 7T320 -13ZM320 482Q235 482
193 423T151 262Q151 161 192 102T320 42Q406 42 447 101T489 262Q489 364 447 423T320 482ZM549 609L438 788H542L607 609H549Z" />
<glyph unicode="&#xf3;" glyph-name="oacute" horiz-adv-x="640" d="M349 788H452L342 609H283L349 788ZM320 -13Q261 -13 217 6T142 62T97 148T81 262Q81 325 96 376T142 462T217 517T320 537Q379 537 423 518T498 463T543 376T559 262Q559 199 544 148T498 62T423
7T320 -13ZM320 482Q235 482 193 423T151 262Q151 161 192 102T320 42Q406 42 447 101T489 262Q489 364 447 423T320 482Z" />
<glyph unicode="&#xf4;" glyph-name="ocircumflex" horiz-adv-x="640" d="M472 609H406L322 731H318L235 609H176L280 788H365L472 609ZM320 -13Q261 -13 217 6T142 62T97 148T81 262Q81 325 96 376T142 462T217 517T320 537Q379 537 423 518T498 463T543 376T559
262Q559 199 544 148T498 62T423 7T320 -13ZM320 482Q235 482 193 423T151 262Q151 161 192 102T320 42Q406 42 447 101T489 262Q489 364 447 423T320 482Z" />
<glyph unicode="&#xf5;" glyph-name="otilde" horiz-adv-x="640" d="M320 -13Q261 -13 217 6T142 62T97 148T81 262Q81 325 96 376T142 462T217 517T320 537Q379 537 423 518T498 463T543 376T559 262Q559 199 544 148T498 62T423 7T320 -13ZM320 482Q235 482
193 423T151 262Q151 161 192 102T320 42Q406 42 447 101T489 262Q489 364 447 423T320 482ZM146 623Q146 651 152 675T171 718T203 748T250 759Q275 759 294 748T331 724T364 700T397 689Q423 689 433 707T445 761H502Q502 733 496 709T476 666T444 637T398 626Q373
626 353 637T316 661T283 686T252 697Q228 697 217 678T204 623H146V623Z" />
<glyph unicode="&#xf6;" glyph-name="odieresis" horiz-adv-x="640" d="M166 746H275V634H166V746ZM367 634V746H475V634H367ZM320 -13Q261 -13 217 6T142 62T97 148T81 262Q81 325 96 376T142 462T217 517T320 537Q379 537 423 518T498 463T543 376T559 262Q559
199 544 148T498 62T423 7T320 -13ZM320 482Q235 482 193 423T151 262Q151 161 192 102T320 42Q406 42 447 101T489 262Q489 364 447 423T320 482Z" />
<glyph unicode="&#xf7;" glyph-name="divide" horiz-adv-x="640" d="M264 595H375V484H264V595ZM92 387H548V328H92V387ZM264 119V231H375V119H264Z" />
<glyph unicode="&#xf8;" glyph-name="oslash" horiz-adv-x="640" d="M320 483Q236 483 194 423T151 262Q151 219 157 184T177 121L434 442Q393 483 320 483ZM320 42Q405 42 446 101T488 262Q488 347 463 400L208 80Q248 42 320 42ZM559 262Q559 200 543 150T497
63T422 7T319 -13Q230 -13 171 35L127 -21H64L137 70Q108 106 94 155T80 262Q80 323 96 373T142 460T218 517T320 537Q366 537 403 524T470 488L513 542H577L504 451Q559 378 559 262Z" />
<glyph unicode="&#xf9;" glyph-name="ugrave" horiz-adv-x="640" d="M180 189Q180 157 184 129T203 82Q232 45 298 45Q376 45 415 98T454 241V524H523V0H458V97H456Q446 75 431 55T394 20T345 -4T284 -13Q111 -13 111 166V524H180V189ZM553 609L442 788H546L611 609H553Z" />
<glyph unicode="&#xfa;" glyph-name="uacute" horiz-adv-x="640" d="M354 788H457L347 609H288L354 788ZM180 189Q180 157 184 129T203 82Q232 45 298 45Q376 45 415 98T454 241V524H523V0H458V97H456Q446 75 431 55T394 20T345 -4T284 -13Q111 -13 111 166V524H180V189Z" />
<glyph unicode="&#xfb;" glyph-name="ucircumflex" horiz-adv-x="640" d="M474 609H408L324 731H320L237 609H178L282 788H367L474 609ZM180 189Q180 157 184 129T203 82Q232 45 298 45Q376 45 415 98T454 241V524H523V0H458V97H456Q446 75 431 55T394 20T345
-4T284 -13Q111 -13 111 166V524H180V189Z" />
<glyph unicode="&#xfc;" glyph-name="udieresis" horiz-adv-x="640" d="M168 746H277V634H168V746ZM369 634V746H477V634H369ZM180 189Q180 157 184 129T203 82Q232 45 298 45Q376 45 415 98T454 241V524H523V0H458V97H456Q446 75 431 55T394 20T345 -4T284 -13Q111
-13 111 166V524H180V189Z" />
<glyph unicode="&#xfd;" glyph-name="yacute" horiz-adv-x="640" d="M86 524H159L299 160Q305 144 310 130T319 104Q323 91 328 78H331Q336 90 340 104Q344 116 349 131T360 161L496 524H566L345 -42Q328 -86 310 -116T271 -164T224 -191T163 -199Q136 -199 118
-195T87 -188V-130Q102 -134 120 -137T161 -141Q185 -141 202 -136T231 -118T254 -88T275 -45L293 -1L86 524ZM365 788H468L358 609H299L365 788Z" />
<glyph unicode="&#xfe;" glyph-name="thorn" horiz-adv-x="640" d="M165 226Q165 191 175 159T207 100T259 59T333 43Q418 43 459 102T500 267Q500 311 492 350T464 418T413 464T337 481Q295 481 263 467T209 427T176 370T165 304V226ZM98 788H167V433H169Q191
481 239 509T350 537Q392 537 432 523T502 477T552 394T571 268Q571 196 553 143T503 56T429 4T339 -13Q306 -13 279 -5T229 18T192 50T169 87H167V-188H98V788Z" />
<glyph unicode="&#xff;" glyph-name="ydieresis" horiz-adv-x="640" d="M86 524H159L299 160Q305 144 310 130T319 104Q323 91 328 78H331Q336 90 340 104Q344 116 349 131T360 161L496 524H566L345 -42Q328 -86 310 -116T271 -164T224 -191T163 -199Q136 -199
118 -195T87 -188V-130Q102 -134 120 -137T161 -141Q185 -141 202 -136T231 -118T254 -88T275 -45L293 -1L86 524ZM179 746H288V634H179V746ZM380 634V746H488V634H380Z" />
<glyph unicode="&#x100;" glyph-name="Amacron" horiz-adv-x="640" d="M312 695Q312 693 310 683T304 658T297 626T287 591L204 308H429L346 592Q341 609 336 627T328 661Q324 679 321 695H312ZM446 250H187L114 0H43L272 765H365L594 0H518L446 250ZM174 919H465V855H174V919Z"
/>
<glyph unicode="&#x101;" glyph-name="amacron" horiz-adv-x="640" d="M163 143Q163 95 193 72T273 48Q303 48 332 59T385 93T423 152T438 236V258Q337 252 282 244T201 218Q163 191 163 143ZM439 101Q416 49 370 21T261 -8Q184 -8 139 31T93 140Q93 185 112 216T167
266Q207 288 273 297T439 312V334Q439 369 434 396T414 442T374 471T310 481Q277 481 254 473T215 451T191 420T181 383H114Q117 414 130 441T168 490T228 524T309 537Q365 537 402 522T463 481T495 418T505 338V104Q505 77 514 67T549 56H568V0H544Q486 0 465
24T442 101H439ZM427 711H718V647H427V711Z" />
<glyph unicode="&#x102;" glyph-name="Abreve" horiz-adv-x="640" d="M312 695Q312 693 310 683T304 658T297 626T287 591L204 308H429L346 592Q341 609 336 627T328 661Q324 679 321 695H312ZM446 250H187L114 0H43L272 765H365L594 0H518L446 250ZM236 970Q242
928 265 909T324 889Q359 889 383 908T413 970H471Q465 896 424 863T321 830Q260 830 220 863T173 970H236Z" />
<glyph unicode="&#x103;" glyph-name="abreve" horiz-adv-x="640" d="M163 143Q163 95 193 72T273 48Q303 48 332 59T385 93T423 152T438 236V258Q337 252 282 244T201 218Q163 191 163 143ZM439 101Q416 49 370 21T261 -8Q184 -8 139 31T93 140Q93 185 112 216T167
266Q207 288 273 297T439 312V334Q439 369 434 396T414 442T374 471T310 481Q277 481 254 473T215 451T191 420T181 383H114Q117 414 130 441T168 490T228 524T309 537Q365 537 402 522T463 481T495 418T505 338V104Q505 77 514 67T549 56H568V0H544Q486 0 465
24T442 101H439ZM238 785Q238 730 263 705T329 680Q369 680 394 705T420 785H477Q477 742 466 711T434 660T386 631T326 621Q294 621 267 630T220 660T189 711T177 785H238Z" />
<glyph unicode="&#x104;" glyph-name="Aogonek" horiz-adv-x="640" d="M312 695Q312 693 310 683T304 658T297 626T287 591L204 308H429L346 592Q341 609 336 627T328 661Q324 679 321 695H312ZM579 -188Q522 -188 487 -166T452 -96Q452 -67 468 -45T519 -3L446
250H187L114 0H43L272 765H365L594 0Q557 -17 537 -37T516 -81Q516 -110 534 -121T594 -134V-188H579Z" />
<glyph unicode="&#x105;" glyph-name="aogonek" horiz-adv-x="640" d="M569 -188H553Q496 -188 462 -167T427 -96Q427 -66 445 -41T506 1V4Q471 12 458 34T442 101H439Q416 49 371 21T262 -8Q184 -8 139 31T93 140Q93 185 112 216T167 266Q207 288 273 297T439
312V334Q439 369 434 396T414 442T374 471T310 481Q277 481 254 473T215 451T191 420T181 383H114Q117 414 130 441T168 490T228 524T309 537Q365 537 402 522T463 481T495 418T505 338V105Q505 77 514 67T549 56H568V0Q531 -17 511 -37T491 -83Q491 -111 509 -122T569
-134V-188ZM163 143Q163 95 193 72T273 48Q303 48 332 59T385 93T423 152T438 236V258Q337 252 282 244T201 218Q163 191 163 143Z" />
<glyph unicode="&#x106;" glyph-name="Cacute" horiz-adv-x="640" d="M508 545Q505 576 494 607T463 663T412 703T337 719Q279 719 241 696T179 630T147 523T137 379Q137 212 184 127T339 42Q382 42 412 57T463 98T494 156T508 222H578Q573 169 555 125T505 50T430
1T335 -16Q271 -16 221 6T135 75T81 197T62 379Q62 580 131 678T338 777Q386 777 428 762T502 718T554 646T580 545H508ZM365 960H467L369 827H308L365 960Z" />
<glyph unicode="&#x107;" glyph-name="cacute" horiz-adv-x="640" d="M369 788H472L362 609H303L369 788ZM480 378Q477 397 467 415T440 448T397 472T339 481Q258 481 214 424T170 264Q170 212 179 171T209 102T260 58T336 43Q372 43 398 53T441 80T468 118T482
161H552Q538 76 479 32T335 -13Q216 -13 157 60T97 259Q97 320 113 371T160 460T236 517T340 538Q376 538 411 530T475 502T524 452T550 378H480Z" />
<glyph unicode="&#x108;" glyph-name="Ccircumflex" horiz-adv-x="640" d="M484 827H415L335 903H333L255 827H190L294 960H377L484 827ZM508 545Q505 576 494 607T463 663T412 703T337 719Q279 719 241 696T179 630T147 523T137 379Q137 212 184 127T339 42Q382
42 412 57T463 98T494 156T508 222H578Q573 169 555 125T505 50T430 1T335 -16Q271 -16 221 6T135 75T81 197T62 379Q62 580 131 678T338 777Q386 777 428 762T502 718T554 646T580 545H508Z" />
<glyph unicode="&#x109;" glyph-name="ccircumflex" horiz-adv-x="640" d="M484 609H418L334 731H330L247 609H188L292 788H377L484 609ZM480 378Q477 397 467 415T440 448T397 472T339 481Q258 481 214 424T170 264Q170 212 179 171T209 102T260 58T336 43Q372
43 398 53T441 80T468 118T482 161H552Q538 76 479 32T335 -13Q216 -13 157 60T97 259Q97 320 113 371T160 460T236 517T340 538Q376 538 411 530T475 502T524 452T550 378H480Z" />
<glyph unicode="&#x10a;" glyph-name="Cdotaccent" horiz-adv-x="640" d="M508 545Q505 576 494 607T463 663T412 703T337 719Q279 719 241 696T179 630T147 523T137 379Q137 212 184 127T339 42Q382 42 412 57T463 98T494 156T508 222H578Q573 169 555 125T505
50T430 1T335 -16Q271 -16 221 6T135 75T81 197T62 379Q62 580 131 678T338 777Q386 777 428 762T502 718T554 646T580 545H508ZM283 947H391V834H283V947Z" />
<glyph unicode="&#x10b;" glyph-name="cdotaccent" horiz-adv-x="640" d="M480 378Q477 397 467 415T440 448T397 472T339 481Q258 481 214 424T170 264Q170 212 179 171T209 102T260 58T336 43Q372 43 398 53T441 80T468 118T482 161H552Q538 76 479 32T335 -13Q216
-13 157 60T97 259Q97 320 113 371T160 460T236 517T340 538Q376 538 411 530T475 502T524 452T550 378H480ZM280 748H391V634H280V748Z" />
<glyph unicode="&#x10c;" glyph-name="Ccaron" horiz-adv-x="640" d="M191 960H260L340 884H342L420 960H485L381 827H298L191 960ZM508 545Q505 576 494 607T463 663T412 703T337 719Q279 719 241 696T179 630T147 523T137 379Q137 212 184 127T339 42Q382 42
412 57T463 98T494 156T508 222H578Q573 169 555 125T505 50T430 1T335 -16Q271 -16 221 6T135 75T81 197T62 379Q62 580 131 678T338 777Q386 777 428 762T502 718T554 646T580 545H508Z" />
<glyph unicode="&#x10d;" glyph-name="ccaron" horiz-adv-x="640" d="M186 788H251L335 666H339L422 788H482L378 609H293L186 788ZM480 378Q477 397 467 415T440 448T397 472T339 481Q258 481 214 424T170 264Q170 212 179 171T209 102T260 58T336 43Q372 43
398 53T441 80T468 118T482 161H552Q538 76 479 32T335 -13Q216 -13 157 60T97 259Q97 320 113 371T160 460T236 517T340 538Q376 538 411 530T475 502T524 452T550 378H480Z" />
<glyph unicode="&#x10e;" glyph-name="Dcaron" horiz-adv-x="640" d="M403 960H472L552 884H554L632 960H697L593 827H510L403 960ZM78 765H256Q325 765 386 745T493 679T565 562T592 388Q592 284 567 211T497 91T392 22T263 0H78V765ZM256 62Q311 62 358 78T441
131T497 231T517 385Q517 471 497 531T442 630T360 686T260 704H149V62H256Z" />
<glyph unicode="&#x10f;" glyph-name="dcaron" horiz-adv-x="640" d="M456 301Q456 338 446 370T416 427T367 466T302 481Q261 481 231 465T180 420T150 351T140 263Q140 214 149 174T177 104T225 59T295 43Q336 43 366 58T416 97T446 154T456 219V301ZM524 0H459V90H455Q445
69 431 51T396 18T349 -4T289 -13Q250 -13 211 0T141 44T89 128T69 259Q69 326 86 378T133 465T204 518T296 537Q354 537 393 512T452 448H454V788H524V0ZM608 788H699L631 587H582L608 788Z" />
<glyph unicode="&#x110;" glyph-name="Dcroat" horiz-adv-x="640" d="M86 0V360H11V420H86V765H252Q321 765 381 745T488 679T560 562T587 388Q587 284 562 211T492 91T387 22T258 0H86ZM252 62Q307 62 354 78T437 131T492 231T512 385Q512 471 492 531T438 630T356
686T256 704H157V420H354V360H157V62H252Z" />
<glyph unicode="&#x111;" glyph-name="dcroat" horiz-adv-x="640" d="M476 300Q476 337 465 369T433 426T382 465T313 480Q269 480 237 464T183 419T152 350T141 262Q141 213 150 173T180 103T231 58T306 42Q349 42 381 57T434 96T465 153T476 218V300ZM475 89Q465
68 449 50T411 17T361 -5T300 -14Q259 -14 218 -1T144 43T91 127T70 258Q70 325 87 377T135 464T209 517T305 536Q365 536 408 510T472 441H474V629H299V682H474V787H544V682H620V629H544V-1H478V89H475Z" />
<glyph unicode="&#x112;" glyph-name="Emacron" horiz-adv-x="640" d="M106 765H552V703H177V420H507V360H177V62H556V0H106V765ZM196 919H487V855H196V919Z" />
<glyph unicode="&#x113;" glyph-name="emacron" horiz-adv-x="640" d="M480 305Q480 336 474 367T450 424T404 466T330 482Q252 482 211 432T162 300H480V305ZM541 131Q526 68 472 28T333 -13Q271 -13 226 6T150 61T106 146T91 258Q91 318 106 369T152 457T227
516T331 537Q392 537 433 516T501 460T538 380T550 289V246H160Q164 150 205 97T335 43Q372 43 397 52T438 76T462 105T475 131H541ZM186 711H477V647H186V711Z" />
<glyph unicode="&#x114;" glyph-name="Ebreve" horiz-adv-x="640" d="M106 765H552V703H177V420H507V360H177V62H556V0H106V765ZM258 970Q264 928 287 909T346 889Q381 889 405 908T435 970H493Q487 896 446 863T343 830Q282 830 242 863T195 970H258Z" />
<glyph unicode="&#x115;" glyph-name="ebreve" horiz-adv-x="640" d="M480 305Q480 336 474 367T450 424T404 466T330 482Q252 482 211 432T162 300H480V305ZM541 131Q526 68 472 28T333 -13Q271 -13 226 6T150 61T106 146T91 258Q91 318 106 369T152 457T227
516T331 537Q392 537 433 516T501 460T538 380T550 289V246H160Q164 150 205 97T335 43Q372 43 397 52T438 76T462 105T475 131H541ZM242 785Q242 730 267 705T333 680Q373 680 398 705T424 785H481Q481 742 470 711T438 660T390 631T330 621Q298 621 271 630T224
660T193 711T181 785H242Z" />
<glyph unicode="&#x116;" glyph-name="Edotaccent" horiz-adv-x="640" d="M289 947H397V834H289V947ZM106 765H552V703H177V420H507V360H177V62H556V0H106V765Z" />
<glyph unicode="&#x117;" glyph-name="edotaccent" horiz-adv-x="640" d="M480 305Q480 336 474 367T450 424T404 466T330 482Q252 482 211 432T162 300H480V305ZM541 131Q526 68 472 28T333 -13Q271 -13 226 6T150 61T106 146T91 258Q91 318 106 369T152 457T227
516T331 537Q392 537 433 516T501 460T538 380T550 289V246H160Q164 150 205 97T335 43Q372 43 397 52T438 76T462 105T475 131H541ZM277 748H388V634H277V748Z" />
<glyph unicode="&#x118;" glyph-name="Eogonek" horiz-adv-x="640" d="M527 -188H512Q455 -188 420 -166T385 -96Q385 -66 402 -43T458 0H106V765H552V703H177V420H507V360H177V62H556V0H527Q490 -17 470 -37T449 -81Q449 -110 467 -121T527 -134V-188Z" />
<glyph unicode="&#x119;" glyph-name="eogonek" horiz-adv-x="640" d="M480 305Q480 336 474 367T450 424T404 466T330 482Q252 482 211 432T162 300H480V305ZM446 -188H431Q374 -188 340 -166T306 -99Q306 -74 320 -53T370 -13V-10Q359 -12 352 -12T333 -13Q271
-13 226 6T150 61T106 146T91 258Q91 318 106 369T152 457T227 516T331 537Q392 537 433 516T501 460T538 380T550 289V246H160Q164 150 205 97T335 43Q372 43 397 52T438 76T462 105T475 131H541Q531 95 512 69T458 20Q420 -6 396 -29T371 -81Q371 -110 389 -122T446
-134V-188Z" />
<glyph unicode="&#x11a;" glyph-name="Ecaron" horiz-adv-x="640" d="M185 960H254L334 884H336L414 960H479L375 827H292L185 960ZM106 765H552V703H177V420H507V360H177V62H556V0H106V765Z" />
<glyph unicode="&#x11b;" glyph-name="ecaron" horiz-adv-x="640" d="M181 788H246L330 666H334L417 788H477L373 609H288L181 788ZM480 305Q480 336 474 367T450 424T404 466T330 482Q252 482 211 432T162 300H480V305ZM541 131Q526 68 472 28T333 -13Q271 -13
226 6T150 61T106 146T91 258Q91 318 106 369T152 457T227 516T331 537Q392 537 433 516T501 460T538 380T550 289V246H160Q164 150 205 97T335 43Q372 43 397 52T438 76T462 105T475 131H541Z" />
<glyph unicode="&#x11c;" glyph-name="Gcircumflex" horiz-adv-x="640" d="M479 827H410L330 903H328L250 827H185L289 960H372L479 827ZM340 718Q285 718 247 696T184 630T148 523T137 377Q137 291 147 228T181 123T241 61T332 41Q378 41 412 59T468 108T502
177T513 256V317H326V378H580V0H517V113H513Q504 88 488 65T448 23T393 -5T323 -16Q262 -16 214 4T132 70T80 192T62 379Q62 482 81 556T137 680T224 752T340 776Q394 776 436 759T507 713T554 644T574 561H503Q500 593 489 621T458 671T408 705T340 718Z" />
<glyph unicode="&#x11d;" glyph-name="gcircumflex" horiz-adv-x="640" d="M469 609H403L319 731H315L232 609H173L277 788H362L469 609ZM480 303Q480 337 470 369T438 426T385 466T310 481Q268 481 237 466T184 422T153 354T143 269Q143 224 151 185T180 118T232
74T311 58Q351 58 382 72T435 110T468 165T480 230V303ZM313 -199Q221 -199 163 -163T93 -56H161Q171 -97 206 -120T314 -143Q349 -143 379 -135T431 -108T466 -57T479 22V105H477Q453 60 406 31T293 2Q254 2 215 15T143 60T91 143T71 269Q71 335 88 385T137 468T212
519T306 537Q341 537 369 528T419 505T456 473T480 435H482V524H548V21Q548 -36 531 -77T482 -146T407 -186T313 -199Z" />
<glyph unicode="&#x11e;" glyph-name="Gbreve" horiz-adv-x="640" d="M248 970Q254 928 277 909T336 889Q371 889 395 908T425 970H483Q477 896 436 863T333 830Q272 830 232 863T185 970H248ZM340 718Q285 718 247 696T184 630T148 523T137 377Q137 291 147 228T181
123T241 61T332 41Q378 41 412 59T468 108T502 177T513 256V317H326V378H580V0H517V113H513Q504 88 488 65T448 23T393 -5T323 -16Q262 -16 214 4T132 70T80 192T62 379Q62 482 81 556T137 680T224 752T340 776Q394 776 436 759T507 713T554 644T574 561H503Q500
593 489 621T458 671T408 705T340 718Z" />
<glyph unicode="&#x11f;" glyph-name="gbreve" horiz-adv-x="640" d="M480 303Q480 337 470 369T438 426T385 466T310 481Q268 481 237 466T184 422T153 354T143 269Q143 224 151 185T180 118T232 74T311 58Q351 58 382 72T435 110T468 165T480 230V303ZM313 -199Q221
-199 163 -163T93 -56H161Q171 -97 206 -120T314 -143Q349 -143 379 -135T431 -108T466 -57T479 22V105H477Q453 60 406 31T293 2Q254 2 215 15T143 60T91 143T71 269Q71 335 88 385T137 468T212 519T306 537Q341 537 369 528T419 505T456 473T480 435H482V524H548V21Q548
-36 531 -77T482 -146T407 -186T313 -199ZM238 785Q238 730 263 705T329 680Q369 680 394 705T420 785H477Q477 742 466 711T434 660T386 631T326 621Q294 621 267 630T220 660T189 711T177 785H238Z" />
<glyph unicode="&#x120;" glyph-name="Gdotaccent" horiz-adv-x="640" d="M278 947H386V834H278V947ZM340 718Q285 718 247 696T184 630T148 523T137 377Q137 291 147 228T181 123T241 61T332 41Q378 41 412 59T468 108T502 177T513 256V317H326V378H580V0H517V113H513Q504
88 488 65T448 23T393 -5T323 -16Q262 -16 214 4T132 70T80 192T62 379Q62 482 81 556T137 680T224 752T340 776Q394 776 436 759T507 713T554 644T574 561H503Q500 593 489 621T458 671T408 705T340 718Z" />
<glyph unicode="&#x121;" glyph-name="gdotaccent" horiz-adv-x="640" d="M480 303Q480 337 470 369T438 426T385 466T310 481Q268 481 237 466T184 422T153 354T143 269Q143 224 151 185T180 118T232 74T311 58Q351 58 382 72T435 110T468 165T480 230V303ZM313
-199Q221 -199 163 -163T93 -56H161Q171 -97 206 -120T314 -143Q349 -143 379 -135T431 -108T466 -57T479 22V105H477Q453 60 406 31T293 2Q254 2 215 15T143 60T91 143T71 269Q71 335 88 385T137 468T212 519T306 537Q341 537 369 528T419 505T456 473T480 435H482V524H548V21Q548
-36 531 -77T482 -146T407 -186T313 -199ZM270 748H381V634H270V748Z" />
<glyph unicode="&#x122;" glyph-name="Gcommaaccent" horiz-adv-x="640" d="M530 -53H637L553 -202H494L530 -53ZM340 718Q285 718 247 696T184 630T148 523T137 377Q137 291 147 228T181 123T241 61T332 41Q378 41 412 59T468 108T502 177T513 256V317H326V378H580V0H517V113H513Q504
88 488 65T448 23T393 -5T323 -16Q262 -16 214 4T132 70T80 192T62 379Q62 482 81 556T137 680T224 752T340 776Q394 776 436 759T507 713T554 644T574 561H503Q500 593 489 621T458 671T408 705T340 718Z" />
<glyph unicode="&#x123;" glyph-name="gcommaaccent" horiz-adv-x="640" d="M388 620H282L370 782H429L388 620ZM480 303Q480 337 470 369T438 426T385 466T310 481Q268 481 237 466T184 422T153 354T143 269Q143 224 151 185T180 118T232 74T311 58Q351 58 382
72T435 110T468 165T480 230V303ZM313 -199Q221 -199 163 -163T93 -56H161Q171 -97 206 -120T314 -143Q349 -143 379 -135T431 -108T466 -57T479 22V105H477Q453 60 406 31T293 2Q254 2 215 15T143 60T91 143T71 269Q71 335 88 385T137 468T212 519T306 537Q341
537 369 528T419 505T456 473T480 435H482V524H548V21Q548 -36 531 -77T482 -146T407 -186T313 -199Z" />
<glyph unicode="&#x124;" glyph-name="Hcircumflex" horiz-adv-x="640" d="M152 0H81V765H152V420H488V765H559V0H488V359H152V0ZM467 827H398L318 903H316L238 827H173L277 960H360L467 827Z" />
<glyph unicode="&#x125;" glyph-name="hcircumflex" horiz-adv-x="640" d="M460 0V335Q460 367 456 393T437 439Q408 478 343 478Q302 478 272 464T223 427T194 374T185 309V0H116V788H185V432H187Q197 454 211 473T247 506T295 528T358 537Q530 537 530 351V0H460ZM484
827H415L335 903H333L255 827H190L294 960H377L484 827Z" />
<glyph unicode="&#x126;" glyph-name="Hbar" horiz-adv-x="640" d="M488 420V574H152V420H488ZM152 0H81V574H20V628H81V765H152V628H488V765H559V628H620V574H559V0H488V359H152V0Z" />
<glyph unicode="&#x127;" glyph-name="hbar" horiz-adv-x="640" d="M185 0H116V629H39V682H116V788H185V682H361V629H185V432H187Q197 454 211 473T247 506T295 528T358 537Q530 537 530 351V0H460V335Q460 367 456 393T437 439Q408 478 343 478Q302 478 272 464T223
427T194 374T185 309V0Z" />
<glyph unicode="&#x128;" glyph-name="Itilde" horiz-adv-x="640" d="M355 58H534V0H106V58H285V707H106V765H534V707H355V58ZM149 827Q150 855 156 879T175 922T208 950T255 961Q280 961 300 950T337 927T370 903T403 892Q429 892 438 910T451 964H509Q508 937
502 913T483 870T450 840T403 829Q378 829 358 840T320 864T287 888T255 899Q230 899 220 881T208 827H149V827Z" />
<glyph unicode="&#x129;" glyph-name="itilde" horiz-adv-x="640" d="M99 0V57H295V468H127V524H363V57H563V0H99ZM397 623Q397 651 403 675T422 718T454 748T501 759Q526 759 545 748T582 724T615 700T648 689Q674 689 684 707T696 761H753Q753 733 747 709T727
666T695 637T649 626Q624 626 604 637T567 661T534 686T503 697Q479 697 468 678T455 623H397V623Z" />
<glyph unicode="&#x12a;" glyph-name="Imacron" horiz-adv-x="640" d="M355 58H534V0H106V58H285V707H106V765H534V707H355V58ZM175 919H466V855H175V919Z" />
<glyph unicode="&#x12b;" glyph-name="imacron" horiz-adv-x="640" d="M99 0V57H295V468H127V524H363V57H563V0H99ZM422 711H713V647H422V711Z" />
<glyph unicode="&#x12c;" glyph-name="Ibreve" horiz-adv-x="640" d="M355 58H534V0H106V58H285V707H106V765H534V707H355V58ZM236 970Q242 928 265 909T324 889Q359 889 383 908T413 970H471Q465 896 424 863T321 830Q260 830 220 863T173 970H236Z" />
<glyph unicode="&#x12d;" glyph-name="ibreve" horiz-adv-x="640" d="M99 0V57H295V468H127V524H363V57H563V0H99ZM487 785Q487 730 512 705T578 680Q618 680 643 705T669 785H726Q726 742 715 711T683 660T635 631T575 621Q543 621 516 630T469 660T438 711T426
785H487Z" />
<glyph unicode="&#x12e;" glyph-name="Iogonek" horiz-adv-x="640" d="M500 -188H485Q428 -188 393 -166T358 -96Q358 -66 375 -43T431 0H106V58H285V707H106V765H534V707H355V58H534V0H500Q463 -17 443 -37T422 -81Q422 -110 440 -121T500 -134V-188Z" />
<glyph unicode="&#x12f;" glyph-name="iogonek" horiz-adv-x="640" d="M267 748H378V634H267V748ZM528 -188H513Q456 -188 421 -166T386 -96Q386 -66 403 -43T459 0H99V57H295V468H127V524H363V57H563V0H528Q491 -17 471 -37T450 -81Q450 -110 468 -121T528 -134V-188Z" />
<glyph unicode="&#x130;" glyph-name="Idotaccent" horiz-adv-x="640" d="M355 58H534V0H106V58H285V707H106V765H534V707H355V58ZM266 947H374V834H266V947Z" />
<glyph unicode="&#x131;" glyph-name="dotlessi" horiz-adv-x="640" d="M99 0V57H295V468H127V524H363V57H563V0H99Z" />
<glyph unicode="&#x132;" glyph-name="IJ" horiz-adv-x="1280" d="M355 58H534V0H106V58H285V707H106V765H534V707H355V58ZM903 -9Q848 -9 813 -3T752 10V75Q779 67 817 61T903 55Q984 55 1025 95T1066 224V704H797V765H1137V216Q1137 158 1120 116T1071 46T997
5T903 -9Z" />
<glyph unicode="&#x133;" glyph-name="ij" horiz-adv-x="1280" d="M267 748H378V634H267V748ZM99 0V57H295V468H127V524H363V57H563V0H99ZM964 634V748H1075V634H964ZM891 -197Q859 -197 833 -193T781 -182V-121Q804 -128 830 -132T887 -136Q941 -136 967 -111T993
-29V467H781V524H1060V-37Q1060 -117 1014 -157T891 -197Z" />
<glyph unicode="&#x134;" glyph-name="Jcircumflex" horiz-adv-x="640" d="M484 827H415L335 903H333L255 827H190L294 960H377L484 827ZM263 -9Q208 -9 173 -3T112 10V75Q139 67 177 61T263 55Q344 55 385 95T426 224V704H157V765H497V216Q497 158 480 116T431
46T357 5T263 -9Z" />
<glyph unicode="&#x135;" glyph-name="jcircumflex" horiz-adv-x="640" d="M260 -197Q222 -197 196 -192T147 -179V-118Q166 -123 192 -130T254 -137Q305 -137 328 -111T352 -26V466H165V524H420V-38Q420 -117 377 -157T260 -197ZM520 609H454L370 731H366L283
609H224L328 788H413L520 609Z" />
<glyph unicode="&#x136;" glyph-name="Kcommaaccent" horiz-adv-x="640" d="M286 -53H393L309 -202H250L286 -53ZM173 0H102V765H173V361L500 765H583L318 441L611 0H525L269 386L173 268V0Z" />
<glyph unicode="&#x137;" glyph-name="kcommaaccent" horiz-adv-x="640" d="M294 -53H401L317 -202H258L294 -53ZM206 0H139V788H206V251L463 524H546L355 323L580 0H498L307 275L206 168V0Z" />
<glyph unicode="&#x138;" glyph-name="kgreenlandic" horiz-adv-x="640" d="M208 0H139V524H208V253L463 524H546L355 323L580 0H498L308 273L208 168V0Z" />
<glyph unicode="&#x139;" glyph-name="Lacute" horiz-adv-x="640" d="M450 960H552L454 827H393L450 960ZM129 765H201V62H590V0H129V765Z" />
<glyph unicode="&#x13a;" glyph-name="lacute" horiz-adv-x="640" d="M355 960H457L359 827H298L355 960ZM92 0V57H289V731H121V788H358V57H558V0H92Z" />
<glyph unicode="&#x13b;" glyph-name="Lcommaaccent" horiz-adv-x="640" d="M307 -53H414L330 -202H271L307 -53ZM129 765H201V62H590V0H129V765Z" />
<glyph unicode="&#x13c;" glyph-name="lcommaaccent" horiz-adv-x="640" d="M526 -53H633L549 -202H490L526 -53ZM92 0V57H289V731H121V788H358V57H558V0H92Z" />
<glyph unicode="&#x13d;" glyph-name="Lcaron" horiz-adv-x="640" d="M332 788H423L355 587H306L332 788ZM129 765H201V62H590V0H129V765Z" />
<glyph unicode="&#x13e;" glyph-name="lcaron" horiz-adv-x="640" d="M477 788H568L500 587H451L477 788ZM92 0V57H289V731H121V788H358V57H558V0H92Z" />
<glyph unicode="&#x13f;" glyph-name="Ldot" horiz-adv-x="640" d="M429 449H540V335H429V449ZM129 765H201V62H590V0H129V765Z" />
<glyph unicode="&#x140;" glyph-name="ldot" horiz-adv-x="640" d="M92 0V57H289V731H121V788H358V57H558V0H92ZM592 442H694V336H592V442Z" />
<glyph unicode="&#x141;" glyph-name="Lslash" horiz-adv-x="640" d="M134 0V296L46 256V322L134 361V765H206V393L467 510V445L206 328V62H595V0H134Z" />
<glyph unicode="&#x142;" glyph-name="lslash" horiz-adv-x="640" d="M92 0V57H289V336L132 254V317L289 400V731H121V788H358V436L521 522V458L358 373V57H558V0H92Z" />
<glyph unicode="&#x143;" glyph-name="Nacute" horiz-adv-x="640" d="M359 960H461L363 827H302L359 960ZM80 765H177L453 175Q462 155 468 138T480 108Q485 93 489 81H495V765H560V0H463L192 578Q182 599 174 618T161 652Q155 669 150 684H145V0H80V765Z" />
<glyph unicode="&#x144;" glyph-name="nacute" horiz-adv-x="640" d="M370 788H473L363 609H304L370 788ZM460 334Q460 366 456 393T437 439Q408 478 343 478Q302 478 272 464T223 427T194 374T185 309V0H116V524H181V431H183Q204 476 246 506T358 537Q530 537
530 351V0H460V334Z" />
<glyph unicode="&#x145;" glyph-name="Ncommaaccent" horiz-adv-x="640" d="M528 -53H635L551 -202H492L528 -53ZM80 765H177L453 175Q462 155 468 138T480 108Q485 93 489 81H495V765H560V0H463L192 578Q182 599 174 618T161 652Q155 669 150 684H145V0H80V765Z" />
<glyph unicode="&#x146;" glyph-name="ncommaaccent" horiz-adv-x="640" d="M532 -53H639L555 -202H496L532 -53ZM460 334Q460 366 456 393T437 439Q408 478 343 478Q302 478 272 464T223 427T194 374T185 309V0H116V524H181V431H183Q204 476 246 506T358 537Q530
537 530 351V0H460V334Z" />
<glyph unicode="&#x147;" glyph-name="Ncaron" horiz-adv-x="640" d="M180 960H249L329 884H331L409 960H474L370 827H287L180 960ZM80 765H177L453 175Q462 155 468 138T480 108Q485 93 489 81H495V765H560V0H463L192 578Q182 599 174 618T161 652Q155 669 150
684H145V0H80V765Z" />
<glyph unicode="&#x148;" glyph-name="ncaron" horiz-adv-x="640" d="M187 788H252L336 666H340L423 788H483L379 609H294L187 788ZM460 334Q460 366 456 393T437 439Q408 478 343 478Q302 478 272 464T223 427T194 374T185 309V0H116V524H181V431H183Q204 476
246 506T358 537Q530 537 530 351V0H460V334Z" />
<glyph unicode="&#x149;" glyph-name="napostrophe" horiz-adv-x="640" d="M86 549H26L77 766H183L86 549ZM460 334Q460 366 456 393T437 439Q408 478 343 478Q302 478 272 464T223 427T194 374T185 309V0H116V524H181V431H183Q204 476 246 506T358 537Q530 537
530 351V0H460V334Z" />
<glyph unicode="&#x14a;" glyph-name="Eng" horiz-adv-x="640" d="M305 -188V-127H317Q370 -127 404 -119T457 -95T485 -55T494 0H463L192 578Q181 599 174 618T161 652Q155 669 151 684H145V0H80V765H177L454 174Q463 154 469 138T480 108Q485 93 489 81H495V765H560V17Q560
-30 550 -68T513 -132T442 -173T331 -188H305Z" />
<glyph unicode="&#x14b;" glyph-name="eng" horiz-adv-x="640" d="M391 -197Q377 -197 366 -196T341 -191V-133Q351 -135 361 -136T387 -138Q425 -138 442 -118T460 -50V334Q460 366 456 393T437 439Q408 478 343 478Q302 478 272 464T223 427T194 374T185 309V0H116V524H181V431H183Q204
476 246 506T358 537Q530 537 530 351V-60Q530 -130 492 -163T391 -197Z" />
<glyph unicode="&#x14c;" glyph-name="Omacron" horiz-adv-x="640" d="M175 919H466V855H175V919ZM55 380Q55 490 75 566T130 688T214 755T321 776Q383 776 432 756T515 689T567 566T585 380Q585 270 566 195T511 72T427 5T319 -16Q256 -16 207 4T124 72T73 194T55
380ZM320 41Q369 41 404 60T463 120T498 225T510 380Q510 473 499 538T465 643T405 701T320 719Q272 719 237 700T178 640T142 535T130 380Q130 291 141 227T175 121T234 61T320 41Z" />
<glyph unicode="&#x14d;" glyph-name="omacron" horiz-adv-x="640" d="M175 711H466V647H175V711ZM320 -13Q261 -13 217 6T142 62T97 148T81 262Q81 325 96 376T142 462T217 517T320 537Q379 537 423 518T498 463T543 376T559 262Q559 199 544 148T498 62T423
7T320 -13ZM320 482Q235 482 193 423T151 262Q151 161 192 102T320 42Q406 42 447 101T489 262Q489 364 447 423T320 482Z" />
<glyph unicode="&#x14e;" glyph-name="Obreve" horiz-adv-x="640" d="M236 970Q242 928 265 909T324 889Q359 889 383 908T413 970H471Q465 896 424 863T321 830Q260 830 220 863T173 970H236ZM55 380Q55 490 75 566T130 688T214 755T321 776Q383 776 432 756T515
689T567 566T585 380Q585 270 566 195T511 72T427 5T319 -16Q256 -16 207 4T124 72T73 194T55 380ZM320 41Q369 41 404 60T463 120T498 225T510 380Q510 473 499 538T465 643T405 701T320 719Q272 719 237 700T178 640T142 535T130 380Q130 291 141 227T175 121T234
61T320 41Z" />
<glyph unicode="&#x14f;" glyph-name="obreve" horiz-adv-x="640" d="M320 -13Q261 -13 217 6T142 62T97 148T81 262Q81 325 96 376T142 462T217 517T320 537Q379 537 423 518T498 463T543 376T559 262Q559 199 544 148T498 62T423 7T320 -13ZM320 482Q235 482
193 423T151 262Q151 161 192 102T320 42Q406 42 447 101T489 262Q489 364 447 423T320 482ZM233 785Q233 730 258 705T324 680Q364 680 389 705T415 785H472Q472 742 461 711T429 660T381 631T321 621Q289 621 262 630T215 660T184 711T172 785H233Z" />
<glyph unicode="&#x150;" glyph-name="Ohungarumlaut" horiz-adv-x="640" d="M403 970H493L421 827H367L403 970ZM250 970H340L269 827H214L250 970ZM55 380Q55 490 75 566T130 688T214 755T321 776Q383 776 432 756T515 689T567 566T585 380Q585 270 566 195T511
72T427 5T319 -16Q256 -16 207 4T124 72T73 194T55 380ZM320 41Q369 41 404 60T463 120T498 225T510 380Q510 473 499 538T465 643T405 701T320 719Q272 719 237 700T178 640T142 535T130 380Q130 291 141 227T175 121T234 61T320 41Z" />
<glyph unicode="&#x151;" glyph-name="ohungarumlaut" horiz-adv-x="640" d="M432 788H522L430 609H373L432 788ZM278 788H367L275 609H218L278 788ZM320 -13Q261 -13 217 6T142 62T97 148T81 262Q81 325 96 376T142 462T217 517T320 537Q379 537 423 518T498
463T543 376T559 262Q559 199 544 148T498 62T423 7T320 -13ZM320 482Q235 482 193 423T151 262Q151 161 192 102T320 42Q406 42 447 101T489 262Q489 364 447 423T320 482Z" />
<glyph unicode="&#x152;" glyph-name="OE" horiz-adv-x="640" d="M324 706Q270 706 229 688T160 631T118 530T104 381Q104 295 117 234T157 134T225 77T324 58V706ZM324 0Q257 0 203 19T110 82T51 200T30 382Q30 490 52 563T114 681T207 745T324 765H619V703H392V420H583V360H392V62H623V0H324Z"
/>
<glyph unicode="&#x153;" glyph-name="oe" horiz-adv-x="640" d="M188 42Q241 42 263 100T286 262Q286 367 265 425T190 483Q138 483 114 432T89 262Q89 203 95 161T113 93T143 54T188 42ZM548 309Q548 397 528 439T452 481Q402 481 378 437T351 301H548V309ZM313
94Q298 46 266 17T183 -13Q103 -13 62 53T20 262Q20 401 61 469T188 537Q242 537 273 509T320 433H322Q339 482 372 509T458 537Q542 537 579 476T616 305V248H350Q352 151 376 98T458 44Q481 44 497 53T523 76T538 105T545 131H609Q599 67 560 28T457 -12Q405
-12 370 13T316 94H313Z" />
<glyph unicode="&#x154;" glyph-name="Racute" horiz-adv-x="640" d="M332 960H434L336 827H275L332 960ZM335 385Q371 385 402 394T456 424T493 475T507 552Q507 627 462 666T334 705H162V385H335ZM341 326H162V0H90V765H333Q375 765 413 757T484 732Q529 707
555 663T581 553Q581 505 567 469T530 406T477 363T413 338V336L589 0H509L341 326Z" />
<glyph unicode="&#x155;" glyph-name="racute" horiz-adv-x="640" d="M386 788H489L379 609H320L386 788ZM422 469Q336 469 284 416T231 256V0H161V524H226V397H228Q249 461 299 497T433 534Q501 534 546 511V445Q519 456 490 462T422 469Z" />
<glyph unicode="&#x156;" glyph-name="Rcommaaccent" horiz-adv-x="640" d="M531 -53H638L554 -202H495L531 -53ZM335 385Q371 385 402 394T456 424T493 475T507 552Q507 627 462 666T334 705H162V385H335ZM341 326H162V0H90V765H333Q375 765 413 757T484 732Q529
707 555 663T581 553Q581 505 567 469T530 406T477 363T413 338V336L589 0H509L341 326Z" />
<glyph unicode="&#x157;" glyph-name="rcommaaccent" horiz-adv-x="640" d="M142 -53H249L165 -202H106L142 -53ZM422 469Q336 469 284 416T231 256V0H161V524H226V397H228Q249 461 299 497T433 534Q501 534 546 511V445Q519 456 490 462T422 469Z" />
<glyph unicode="&#x158;" glyph-name="Rcaron" horiz-adv-x="640" d="M424 960H493L573 884H575L653 960H718L614 827H531L424 960ZM335 385Q371 385 402 394T456 424T493 475T507 552Q507 627 462 666T334 705H162V385H335ZM341 326H162V0H90V765H333Q375 765
413 757T484 732Q529 707 555 663T581 553Q581 505 567 469T530 406T477 363T413 338V336L589 0H509L341 326Z" />
<glyph unicode="&#x159;" glyph-name="rcaron" horiz-adv-x="640" d="M201 788H266L350 666H354L437 788H497L393 609H308L201 788ZM422 469Q336 469 284 416T231 256V0H161V524H226V397H228Q249 461 299 497T433 534Q501 534 546 511V445Q519 456 490 462T422 469Z" />
<glyph unicode="&#x15a;" glyph-name="Sacute" horiz-adv-x="640" d="M499 561Q496 593 486 621T455 671T404 704T329 717Q251 717 206 680T160 574Q160 542 168 519T192 480T232 453T291 434L399 409Q497 386 539 337T581 205Q581 156 564 116T514 46T433 1T320
-15Q258 -15 212 2T134 49T84 121T62 212H131Q135 178 147 148T182 94T240 58T324 44Q375 44 410 56T466 90T498 140T508 199Q508 259 480 292T380 343L281 366Q228 378 192 396T133 438T100 496T90 572Q90 619 108 656T157 720T233 761T330 776Q388 776 431 761T504
717T550 649T570 561H499ZM350 960H452L354 827H293L350 960Z" />
<glyph unicode="&#x15b;" glyph-name="sacute" horiz-adv-x="640" d="M360 788H463L353 609H294L360 788ZM455 398Q446 441 414 462T322 483Q263 483 230 459T196 390Q196 347 221 328T291 303L381 291Q466 280 500 245T534 149Q534 76 480 32T316 -13Q274 -13
237 -5T173 22T127 71T104 147H171Q177 96 212 69T316 41Q388 41 427 67T466 144Q466 182 445 202T365 230L274 243Q208 253 169 285T130 386Q130 417 142 445T178 493T238 525T323 537Q415 537 464 500T522 398H455Z" />
<glyph unicode="&#x15c;" glyph-name="Scircumflex" horiz-adv-x="640" d="M473 827H404L324 903H322L244 827H179L283 960H366L473 827ZM499 561Q496 593 486 621T455 671T404 704T329 717Q251 717 206 680T160 574Q160 542 168 519T192 480T232 453T291 434L399
409Q497 386 539 337T581 205Q581 156 564 116T514 46T433 1T320 -15Q258 -15 212 2T134 49T84 121T62 212H131Q135 178 147 148T182 94T240 58T324 44Q375 44 410 56T466 90T498 140T508 199Q508 259 480 292T380 343L281 366Q228 378 192 396T133 438T100 496T90
572Q90 619 108 656T157 720T233 761T330 776Q388 776 431 761T504 717T550 649T570 561H499Z" />
<glyph unicode="&#x15d;" glyph-name="scircumflex" horiz-adv-x="640" d="M474 609H408L324 731H320L237 609H178L282 788H367L474 609ZM455 398Q446 441 414 462T322 483Q263 483 230 459T196 390Q196 347 221 328T291 303L381 291Q466 280 500 245T534 149Q534
76 480 32T316 -13Q274 -13 237 -5T173 22T127 71T104 147H171Q177 96 212 69T316 41Q388 41 427 67T466 144Q466 182 445 202T365 230L274 243Q208 253 169 285T130 386Q130 417 142 445T178 493T238 525T323 537Q415 537 464 500T522 398H455Z" />
<glyph unicode="&#x15e;" glyph-name="Scedilla" horiz-adv-x="640" d="M328 -216Q285 -216 262 -197T235 -147H295Q300 -161 308 -166T332 -171Q352 -171 363 -160T375 -129Q375 -110 364 -100T334 -89Q312 -89 298 -103H243L282 -13Q230 -8 191 11T124 59T81
128T62 212H131Q135 178 147 148T182 94T240 58T324 44Q375 44 410 56T466 90T498 140T508 199Q508 259 480 292T380 343L281 366Q228 378 192 396T133 438T100 496T90 572Q90 619 108 656T157 720T233 761T330 776Q388 776 431 761T504 717T550 649T570 561H499Q496
593 486 621T455 671T404 704T329 717Q251 717 206 680T160 574Q160 542 168 519T192 480T232 453T291 434L399 409Q497 386 539 337T581 205Q581 156 564 116T515 46T434 1T324 -15L310 -46H346Q386 -46 409 -67T433 -126Q433 -162 406 -189T328 -216Z" />
<glyph unicode="&#x15f;" glyph-name="scedilla" horiz-adv-x="640" d="M318 -216Q275 -216 252 -197T225 -147H285Q290 -161 298 -166T322 -171Q342 -171 353 -160T365 -129Q365 -110 354 -100T324 -89Q302 -89 288 -103H233L273 -11Q205 -4 159 33T104 147H171Q177
96 212 69T316 41Q388 41 427 67T466 144Q466 182 445 202T365 230L274 243Q208 253 169 285T130 386Q130 417 142 445T178 493T238 525T323 537Q415 537 464 500T522 398H455Q446 441 414 462T322 483Q263 483 230 459T196 390Q196 347 221 328T291 303L381 291Q466
280 500 245T534 149Q534 76 480 32T316 -13H315L300 -46H336Q376 -46 399 -67T423 -126Q423 -162 396 -189T318 -216Z" />
<glyph unicode="&#x160;" glyph-name="Scaron" horiz-adv-x="640" d="M177 960H246L326 884H328L406 960H471L367 827H284L177 960ZM499 561Q496 593 486 621T455 671T404 704T329 717Q251 717 206 680T160 574Q160 542 168 519T192 480T232 453T291 434L399 409Q497
386 539 337T581 205Q581 156 564 116T514 46T433 1T320 -15Q258 -15 212 2T134 49T84 121T62 212H131Q135 178 147 148T182 94T240 58T324 44Q375 44 410 56T466 90T498 140T508 199Q508 259 480 292T380 343L281 366Q228 378 192 396T133 438T100 496T90 572Q90
619 108 656T157 720T233 761T330 776Q388 776 431 761T504 717T550 649T570 561H499Z" />
<glyph unicode="&#x161;" glyph-name="scaron" horiz-adv-x="640" d="M174 788H239L323 666H327L410 788H470L366 609H281L174 788ZM455 398Q446 441 414 462T322 483Q263 483 230 459T196 390Q196 347 221 328T291 303L381 291Q466 280 500 245T534 149Q534 76
480 32T316 -13Q274 -13 237 -5T173 22T127 71T104 147H171Q177 96 212 69T316 41Q388 41 427 67T466 144Q466 182 445 202T365 230L274 243Q208 253 169 285T130 386Q130 417 142 445T178 493T238 525T323 537Q415 537 464 500T522 398H455Z" />
<glyph unicode="&#x162;" glyph-name="Tcommaaccent" horiz-adv-x="640" d="M521 -53H628L544 -202H485L521 -53ZM604 704H355V0H284V704H35V765H604V704Z" />
<glyph unicode="&#x163;" glyph-name="tcommaaccent" horiz-adv-x="640" d="M343 -53H450L366 -202H307L343 -53ZM254 467H61V524H197Q234 524 245 537T257 587V685H323V524H541V467H323V141Q323 89 350 69T425 48Q457 48 485 53T541 67V8Q520 0 491 -6T422 -12Q375
-12 343 -2T291 28T263 76T254 140V467Z" />
<glyph unicode="&#x164;" glyph-name="Tcaron" horiz-adv-x="640" d="M173 960H242L322 884H324L402 960H467L363 827H280L173 960ZM604 704H355V0H284V704H35V765H604V704Z" />
<glyph unicode="&#x165;" glyph-name="tcaron" horiz-adv-x="640" d="M428 788H519L451 587H402L428 788ZM254 467H61V524H197Q234 524 245 537T257 587V685H323V524H541V467H323V141Q323 89 350 69T425 48Q457 48 485 53T541 67V8Q520 0 491 -6T422 -12Q375 -12
343 -2T291 28T263 76T254 140V467Z" />
<glyph unicode="&#x166;" glyph-name="Tbar" horiz-adv-x="640" d="M355 0H284V438H107V495H284V704H35V765H604V704H355V495H532V438H355V0Z" />
<glyph unicode="&#x167;" glyph-name="tbar" horiz-adv-x="640" d="M541 8Q520 0 491 -6T422 -12Q375 -12 343 -2T291 28T263 76T254 140V260H61V316H254V467H61V524H197Q234 524 245 537T257 587V685H323V524H541V467H323V316H541V260H323V141Q323 89 350 69T425
48Q457 48 485 53T541 67V8V8Z" />
<glyph unicode="&#x168;" glyph-name="Utilde" horiz-adv-x="640" d="M75 765H146V250Q146 202 155 165T185 101T239 61T322 47Q371 47 404 61T457 101T486 164T495 250V765H565V246Q565 175 548 126T498 45T421 -1T320 -15Q264 -15 219 -1T141 44T92 126T75 247V765ZM152
827Q153 855 159 879T178 922T211 950T258 961Q283 961 303 950T340 927T373 903T406 892Q432 892 441 910T454 964H512Q511 937 505 913T486 870T453 840T406 829Q381 829 361 840T323 864T290 888T258 899Q233 899 223 881T211 827H152V827Z" />
<glyph unicode="&#x169;" glyph-name="utilde" horiz-adv-x="640" d="M180 189Q180 157 184 129T203 82Q232 45 298 45Q376 45 415 98T454 241V524H523V0H458V97H456Q446 75 431 55T394 20T345 -4T284 -13Q111 -13 111 166V524H180V189ZM144 623Q144 651 150 675T169
718T201 748T248 759Q273 759 292 748T329 724T362 700T395 689Q421 689 431 707T443 761H500Q500 733 494 709T474 666T442 637T396 626Q371 626 351 637T314 661T281 686T250 697Q226 697 215 678T202 623H144V623Z" />
<glyph unicode="&#x16a;" glyph-name="Umacron" horiz-adv-x="640" d="M75 765H146V250Q146 202 155 165T185 101T239 61T322 47Q371 47 404 61T457 101T486 164T495 250V765H565V246Q565 175 548 126T498 45T421 -1T320 -15Q264 -15 219 -1T141 44T92 126T75
247V765ZM178 919H469V855H178V919Z" />
<glyph unicode="&#x16b;" glyph-name="umacron" horiz-adv-x="640" d="M180 189Q180 157 184 129T203 82Q232 45 298 45Q376 45 415 98T454 241V524H523V0H458V97H456Q446 75 431 55T394 20T345 -4T284 -13Q111 -13 111 166V524H180V189ZM177 711H468V647H177V711Z" />
<glyph unicode="&#x16c;" glyph-name="Ubreve" horiz-adv-x="640" d="M75 765H146V250Q146 202 155 165T185 101T239 61T322 47Q371 47 404 61T457 101T486 164T495 250V765H565V246Q565 175 548 126T498 45T421 -1T320 -15Q264 -15 219 -1T141 44T92 126T75 247V765ZM239
970Q245 928 268 909T327 889Q362 889 386 908T416 970H474Q468 896 427 863T324 830Q263 830 223 863T176 970H239Z" />
<glyph unicode="&#x16d;" glyph-name="ubreve" horiz-adv-x="640" d="M180 189Q180 157 184 129T203 82Q232 45 298 45Q376 45 415 98T454 241V524H523V0H458V97H456Q446 75 431 55T394 20T345 -4T284 -13Q111 -13 111 166V524H180V189ZM235 785Q235 730 260 705T326
680Q366 680 391 705T417 785H474Q474 742 463 711T431 660T383 631T323 621Q291 621 264 630T217 660T186 711T174 785H235Z" />
<glyph unicode="&#x16e;" glyph-name="Uring" horiz-adv-x="640" d="M75 765H146V250Q146 202 155 165T185 101T239 61T322 47Q371 47 404 61T457 101T486 164T495 250V765H565V246Q565 175 548 126T498 45T421 -1T320 -15Q264 -15 219 -1T141 44T92 126T75 247V765ZM322
1043Q266 1043 232 1077T198 1166Q198 1220 232 1255T322 1290Q350 1290 373 1281T413 1255T438 1216T447 1166Q447 1112 413 1078T322 1043ZM322 1246Q289 1246 270 1223T250 1166Q250 1131 269 1110T322 1088Q356 1088 375 1109T395 1166Q395 1200 376 1223T322
1246Z" />
<glyph unicode="&#x16f;" glyph-name="uring" horiz-adv-x="640" d="M197 958Q197 985 206 1008T231 1047T270 1073T321 1083Q378 1083 412 1048T446 958Q446 904 412 870T321 835Q265 835 231 869T197 958ZM321 880Q355 880 374 902T394 958Q394 993 375 1015T321
1038Q288 1038 269 1016T249 958Q249 924 268 902T321 880ZM180 189Q180 157 184 129T203 82Q232 45 298 45Q376 45 415 98T454 241V524H523V0H458V97H456Q446 75 431 55T394 20T345 -4T284 -13Q111 -13 111 166V524H180V189Z" />
<glyph unicode="&#x170;" glyph-name="Uhungarumlaut" horiz-adv-x="640" d="M405 970H495L423 827H369L405 970ZM252 970H342L271 827H216L252 970ZM75 765H146V250Q146 202 155 165T185 101T239 61T322 47Q371 47 404 61T457 101T486 164T495 250V765H565V246Q565
175 548 126T498 45T421 -1T320 -15Q264 -15 219 -1T141 44T92 126T75 247V765Z" />
<glyph unicode="&#x171;" glyph-name="uhungarumlaut" horiz-adv-x="640" d="M180 189Q180 157 184 129T203 82Q232 45 298 45Q376 45 415 98T454 241V524H523V0H458V97H456Q446 75 431 55T394 20T345 -4T284 -13Q111 -13 111 166V524H180V189ZM428 788H518L426
609H369L428 788ZM274 788H363L271 609H214L274 788Z" />
<glyph unicode="&#x172;" glyph-name="Uogonek" horiz-adv-x="640" d="M390 -188Q333 -188 298 -167T263 -96Q263 -70 275 -51T317 -16V-13Q260 -13 215 1T139 47T92 127T75 247V765H146V250Q146 202 155 165T185 101T239 61T322 47Q371 47 404 61T457 101T486
164T495 250V765H565V246Q565 141 527 80T415 -3Q368 -17 348 -35T327 -79Q327 -108 346 -120T405 -134V-188H390Z" />
<glyph unicode="&#x173;" glyph-name="uogonek" horiz-adv-x="640" d="M508 -188Q451 -188 416 -166T381 -96Q381 -66 400 -42T463 2L458 0V97H456Q446 75 431 55T394 20T345 -4T284 -13Q111 -13 111 166V524H180V189Q180 157 184 129T203 82Q232 45 298 45Q376
45 415 98T454 241V524H523V0Q486 -17 466 -37T445 -81Q445 -110 463 -121T523 -134V-188H508Z" />
<glyph unicode="&#x174;" glyph-name="Wcircumflex" horiz-adv-x="640" d="M468 827H399L319 903H317L239 827H174L278 960H361L468 827ZM117 0L41 765H107L173 79H179Q180 93 183 109Q185 123 188 139T195 175L286 605H357L448 174Q452 156 454 140T459 109Q461
93 463 79H470L535 765H598L523 0H425L339 414Q334 434 331 453T326 487Q323 505 322 521H316Q315 505 312 487Q310 472 307 453T299 414L213 0H117Z" />
<glyph unicode="&#x175;" glyph-name="wcircumflex" horiz-adv-x="640" d="M473 609H407L323 731H319L236 609H177L281 788H366L473 609ZM39 524H105L179 138Q181 127 182 116T185 94Q187 83 188 71H192Q193 83 195 95Q197 105 199 116T203 138L285 524H358L439
138Q441 130 442 119T446 96Q448 84 450 71H454Q455 84 457 96Q459 107 460 118T463 138L536 524H601L492 0H412L339 342Q335 359 332 376T327 407Q324 424 322 439H318Q316 424 313 407Q311 393 308 376T301 342L229 0H148L39 524Z" />
<glyph unicode="&#x176;" glyph-name="Ycircumflex" horiz-adv-x="640" d="M285 337L42 765H122L322 400H323L525 765H599L356 338V0H285V337ZM471 827H402L322 903H320L242 827H177L281 960H364L471 827Z" />
<glyph unicode="&#x177;" glyph-name="ycircumflex" horiz-adv-x="640" d="M86 524H159L299 160Q305 144 310 130T319 104Q323 91 328 78H331Q336 90 340 104Q344 116 349 131T360 161L496 524H566L345 -42Q328 -86 310 -116T271 -164T224 -191T163 -199Q136 -199
118 -195T87 -188V-130Q102 -134 120 -137T161 -141Q185 -141 202 -136T231 -118T254 -88T275 -45L293 -1L86 524ZM485 609H419L335 731H331L248 609H189L293 788H378L485 609Z" />
<glyph unicode="&#x178;" glyph-name="Ydieresis" horiz-adv-x="640" d="M285 337L42 765H122L322 400H323L525 765H599L356 338V0H285V337ZM371 947H479V834H371V947ZM170 947H279V834H170V947Z" />
<glyph unicode="&#x179;" glyph-name="Zacute" horiz-adv-x="640" d="M354 960H456L358 827H297L354 960ZM77 765H580V710L146 61H586V0H62V55L496 704H77V765Z" />
<glyph unicode="&#x17a;" glyph-name="zacute" horiz-adv-x="640" d="M357 788H460L350 609H291L357 788ZM116 524H530V465L178 58H538V0H99V61L449 466H116V524Z" />
<glyph unicode="&#x17b;" glyph-name="Zdotaccent" horiz-adv-x="640" d="M77 765H580V710L146 61H586V0H62V55L496 704H77V765ZM271 947H379V834H271V947Z" />
<glyph unicode="&#x17c;" glyph-name="zdotaccent" horiz-adv-x="640" d="M116 524H530V465L178 58H538V0H99V61L449 466H116V524ZM269 748H380V634H269V748Z" />
<glyph unicode="&#x17d;" glyph-name="Zcaron" horiz-adv-x="640" d="M179 960H248L328 884H330L408 960H473L369 827H286L179 960ZM77 765H580V710L146 61H586V0H62V55L496 704H77V765Z" />
<glyph unicode="&#x17e;" glyph-name="zcaron" horiz-adv-x="640" d="M177 788H242L326 666H330L413 788H473L369 609H284L177 788ZM116 524H530V465L178 58H538V0H99V61L449 466H116V524Z" />
<glyph unicode="&#x192;" glyph-name="florin" horiz-adv-x="640" d="M258 -188H190L267 373H61V431H275L303 637Q309 679 325 708T364 756T418 783T481 792Q513 792 535 788T575 779V720Q549 727 530 730T485 733Q441 733 410 712T371 630L344 431H575V373H335L258
-188Z" />
<glyph unicode="&#x1fa;" glyph-name="Aringacute" horiz-adv-x="640" d="M312 695Q312 693 310 683T304 658T297 626T287 591L204 308H429L346 592Q341 609 336 627T328 661Q324 679 321 695H312ZM446 250H187L114 0H43L272 765H365L594 0H518L446 250ZM351 1194H453L355
1061H294L351 1194ZM320 1048Q264 1048 230 1082T196 1171Q196 1225 230 1260T320 1295Q348 1295 371 1286T411 1260T436 1221T445 1171Q445 1117 411 1083T320 1048ZM320 1251Q287 1251 268 1228T248 1171Q248 1136 267 1115T320 1093Q354 1093 373 1114T393 1171Q393
1205 374 1228T320 1251Z" />
<glyph unicode="&#x1fb;" glyph-name="aringacute" horiz-adv-x="640" d="M163 143Q163 95 193 72T273 48Q303 48 332 59T385 93T423 152T438 236V258Q337 252 282 244T201 218Q163 191 163 143ZM439 101Q416 49 370 21T261 -8Q184 -8 139 31T93 140Q93 185 112
216T167 266Q207 288 273 297T439 312V334Q439 369 434 396T414 442T374 471T310 481Q277 481 254 473T215 451T191 420T181 383H114Q117 414 130 441T168 490T228 524T309 537Q365 537 402 522T463 481T495 418T505 338V104Q505 77 514 67T549 56H568V0H544Q486
0 465 24T442 101H439ZM195 956Q195 983 204 1006T229 1045T268 1071T319 1081Q376 1081 410 1046T444 956Q444 902 410 868T319 833Q263 833 229 867T195 956ZM319 878Q353 878 372 900T392 956Q392 991 373 1013T319 1036Q286 1036 267 1014T247 956Q247 922
266 900T319 878ZM349 991H451L353 858H292L349 991Z" />
<glyph unicode="&#x1fc;" glyph-name="AEacute" horiz-adv-x="640" d="M439 960H541L443 827H382L439 960ZM330 703H311L171 296H330V703ZM70 0H2L268 765H625V703H396V420H588V360H396V62H629V0H330V239H152L70 0Z" />
<glyph unicode="&#x1fd;" glyph-name="aeacute" horiz-adv-x="640" d="M363 788H466L356 609H297L363 788ZM542 307Q542 344 539 376T525 431T495 467T445 481Q415 481 396 468T365 431T348 374T342 300H542V307ZM167 45Q217 45 247 89T278 213V249Q236 249 210
248T166 245T138 237T118 225Q85 199 85 144Q85 96 105 71T167 45ZM603 131Q592 66 553 28T448 -10Q384 -10 352 20T306 102H303Q283 48 249 19T155 -10Q92 -10 55 30T17 139Q17 188 37 222T88 273Q103 281 118 286T154 295T204 299T278 301V367Q278 417 258 449T189
482Q143 482 121 455T98 385H36Q36 416 46 443T75 492T123 525T189 537Q217 537 238 530T275 510T301 482T317 449H321Q336 486 368 511T453 537Q497 537 527 519T575 470T601 396T609 304V248L342 247Q343 147 365 96T450 45Q474 45 490 54T516 76T531 104T539
131H603Z" />
<glyph unicode="&#x1fe;" glyph-name="Oslashacute" horiz-adv-x="640" d="M320 719Q272 719 237 700T177 640T141 535T129 380Q129 314 134 263T152 172L465 647Q442 685 406 702T320 719ZM320 41Q369 41 405 60T464 120T499 225T511 380Q511 449 506 501T488
593L175 118Q198 78 233 60T320 41ZM585 380Q585 270 566 195T511 72T427 5T319 -16Q262 -16 216 1T136 59L81 -25H22L106 103Q81 151 68 218T55 380Q55 490 75 566T130 688T214 755T321 776Q377 776 422 759T501 702L561 793H620L531 659Q557 611 571 543T585
380ZM352 960H454L356 827H295L352 960Z" />
<glyph unicode="&#x1ff;" glyph-name="oslashacute" horiz-adv-x="640" d="M320 483Q236 483 194 423T151 262Q151 219 157 184T177 121L434 442Q393 483 320 483ZM320 42Q405 42 446 101T488 262Q488 347 463 400L208 80Q248 42 320 42ZM559 262Q559 200 543
150T497 63T422 7T319 -13Q230 -13 171 35L127 -21H64L137 70Q108 106 94 155T80 262Q80 323 96 373T142 460T218 517T320 537Q366 537 403 524T470 488L513 542H577L504 451Q559 378 559 262ZM358 788H461L351 609H292L358 788Z" />
<glyph unicode="&#x218;" glyph-name="Scommaaccent" horiz-adv-x="640" d="M530 -53H637L553 -202H494L530 -53ZM499 561Q496 593 486 621T455 671T404 704T329 717Q251 717 206 680T160 574Q160 542 168 519T192 480T232 453T291 434L399 409Q497 386 539 337T581
205Q581 156 564 116T514 46T433 1T320 -15Q258 -15 212 2T134 49T84 121T62 212H131Q135 178 147 148T182 94T240 58T324 44Q375 44 410 56T466 90T498 140T508 199Q508 259 480 292T380 343L281 366Q228 378 192 396T133 438T100 496T90 572Q90 619 108 656T157
720T233 761T330 776Q388 776 431 761T504 717T550 649T570 561H499Z" />
<glyph unicode="&#x219;" glyph-name="scommaaccent" horiz-adv-x="640" d="M525 -52H632L548 -201H489L525 -52ZM455 398Q446 441 414 462T322 483Q263 483 230 459T196 390Q196 347 221 328T291 303L381 291Q466 280 500 245T534 149Q534 76 480 32T316 -13Q274
-13 237 -5T173 22T127 71T104 147H171Q177 96 212 69T316 41Q388 41 427 67T466 144Q466 182 445 202T365 230L274 243Q208 253 169 285T130 386Q130 417 142 445T178 493T238 525T323 537Q415 537 464 500T522 398H455Z" />
<glyph unicode="&#x21a;" glyph-name="uni021A" horiz-adv-x="640" d="M521 -53H628L544 -202H485L521 -53ZM604 704H355V0H284V704H35V765H604V704Z" />
<glyph unicode="&#x21b;" glyph-name="uni021B" horiz-adv-x="640" d="M343 -53H450L366 -202H307L343 -53ZM254 467H61V524H197Q234 524 245 537T257 587V685H323V524H541V467H323V141Q323 89 350 69T425 48Q457 48 485 53T541 67V8Q520 0 491 -6T422 -12Q375
-12 343 -2T291 28T263 76T254 140V467Z" />
<glyph unicode="&#x237;" glyph-name="uni0237" horiz-adv-x="640" d="M260 -197Q222 -197 196 -192T147 -179V-118Q166 -123 192 -130T254 -137Q305 -137 328 -111T352 -26V466H165V524H420V-38Q420 -117 377 -157T260 -197Z" />
<glyph unicode="&#x2c6;" glyph-name="circumflex" horiz-adv-x="640" d="M468 609H402L318 731H314L231 609H172L276 788H361L468 609Z" />
<glyph unicode="&#x2c7;" glyph-name="caron" horiz-adv-x="640" d="M172 788H237L321 666H325L408 788H468L364 609H279L172 788Z" />
<glyph unicode="&#x2d8;" glyph-name="breve" horiz-adv-x="640" d="M232 785Q232 730 257 705T323 680Q363 680 388 705T414 785H471Q471 742 460 711T428 660T380 631T320 621Q288 621 261 630T214 660T183 711T171 785H232Z" />
<glyph unicode="&#x2d9;" glyph-name="dotaccent" horiz-adv-x="640" d="M266 748H377V634H266V748Z" />
<glyph unicode="&#x2da;" glyph-name="ring" horiz-adv-x="640" d="M194 712Q194 739 203 762T228 801T267 827T318 837Q375 837 409 802T443 712Q443 658 409 624T318 589Q262 589 228 623T194 712ZM318 634Q352 634 371 656T391 712Q391 747 372 769T318 792Q285
792 266 770T246 712Q246 678 265 656T318 634Z" />
<glyph unicode="&#x2db;" glyph-name="ogonek" horiz-adv-x="640" d="M401 0Q364 -17 344 -37T323 -81Q323 -110 341 -121T401 -134V-188H386Q329 -188 294 -166T259 -96Q259 -57 288 -29T387 23L401 0Z" />
<glyph unicode="&#x2dc;" glyph-name="tilde" horiz-adv-x="640" d="M143 623Q143 651 149 675T168 718T200 748T247 759Q272 759 291 748T328 724T361 700T394 689Q420 689 430 707T442 761H499Q499 733 493 709T473 666T441 637T395 626Q370 626 350 637T313
661T280 686T249 697Q225 697 214 678T201 623H143V623Z" />
<glyph unicode="&#x2dd;" glyph-name="hungarumlaut" horiz-adv-x="640" d="M385 788H475L383 609H326L385 788ZM231 788H320L228 609H171L231 788Z" />
</font>
</defs>
</svg>
